<svg id="Слой_1" data-name="Слой 1" xmlns="http://www.w3.org/2000/svg" width="55.8967" height="35.6411" viewBox="0 0 55.8967 35.6411"><defs><style>.cls-1{fill-rule:evenodd;}</style></defs><title>fda</title><path class="cls-1" d="M23.7626,19.5177c1.74,0,5.7888.4444,5.7888,4.5556,0,3.1748-2.6538,4.836-5.2765,4.836H22.4474V22.3574H19.8115v9.1472h4.4634c3.8355,0,7.9117-2.6046,7.9117-7.4313,0-4.3431-3.3061-7.1509-8.424-7.1509H4.94l-.0234,7.9014H14.9427V22.2294H7.56l.0079-2.7117Z" transform="translate(-1.3532 -12.9472)"/><polygon class="cls-1" points="13.535 12.722 3.582 12.722 3.564 21.675 6.2 21.68 6.211 15.317 13.535 15.317 13.535 12.722"/><path class="cls-1" d="M15.473,15.5494a102.2049,102.2049,0,0,1,10.48.2812,8.0752,8.0752,0,0,1,7.197,5.6623,7.6273,7.6273,0,0,1,.0234,4.6946c-3.4754,4.9516-4.8234,5.8841-9.4033,5.8841H18.8852v-9.836H16.2509V34.6669H23.77c6.4582,0,8.2709-2.17,12.5664-8.4419h-.0008q4.3194-6.3258,8.6239-12.6617H41.7882c-1.5675,2.3055-3.9441,5.8005-5.8184,8.55a6.8455,6.8455,0,0,0-.3171-1.466,10.6025,10.6025,0,0,0-9.3971-7.3922,103.3927,103.3927,0,0,0-10.7966-.2991c-.7584.0031-1.4879.007-2.1712.007H1.3734l-.02,21.8378,2.6351.0023.0164-19.2456h9.2838C13.975,15.5572,14.71,15.5525,15.473,15.5494Z" transform="translate(-1.3532 -12.9472)"/><polygon class="cls-1" points="46.665 0.397 43.651 0.397 54.206 19.096 38.808 19.096 38.808 21.692 52.559 21.692 54.312 19.096 55.897 16.75 46.665 0.397"/><polygon class="cls-1" points="38.904 18.197 52.085 18.197 43.325 2.783 30.493 21.699 33.661 21.699 43.127 7.747 47.591 15.602 38.904 15.602 38.904 18.197"/><polygon class="cls-1" points="15.833 29.246 13.511 29.246 13.511 28.133 15.597 28.133 15.597 27.443 13.511 27.443 13.511 26.535 15.753 26.535 15.753 25.843 12.672 25.843 12.672 29.935 15.833 29.936 15.833 29.246"/><path class="cls-1" d="M19.6529,39.4958a1.0119,1.0119,0,0,1,.6053.175.8731.8731,0,0,1,.33.4764l.8325-.1539a1.4231,1.4231,0,0,0-.56-.8825,2,2,0,0,0-1.2083-.32,2.1706,2.1706,0,0,0-.9942.203,1.8131,1.8131,0,0,0-.7966.7631,2.3174,2.3174,0,0,0-.2726,1.1356,2.4593,2.4593,0,0,0,.2429,1.09,1.7181,1.7181,0,0,0,.73.7709,2.2984,2.2984,0,0,0,1.1363.2694,2.8346,2.8346,0,0,0,1.0138-.1906,2.2879,2.2879,0,0,0,.7638-.4428V40.758H19.667v.69h.9614v.5194a1.7882,1.7882,0,0,1-.4561.2467,1.4391,1.4391,0,0,1-.5287.1016,1.1066,1.1066,0,0,1-.8615-.3639,1.5865,1.5865,0,0,1-.328-1.0927,1.434,1.434,0,0,1,.3241-1.0192A1.15,1.15,0,0,1,19.6529,39.4958Z" transform="translate(-1.3532 -12.9472)"/><path class="cls-1" d="M12.4208,41.42a1.9652,1.9652,0,0,0-.45-.3437,1.3232,1.3232,0,0,0,.8216-.378,1.08,1.08,0,0,0,.2749-.7607,1.1722,1.1722,0,0,0-.18-.6451.9472.9472,0,0,0-.4842-.3913,3.0384,3.0384,0,0,0-.9685-.1116H9.6693v4.0932h.84V41.175h.1687a1.396,1.396,0,0,1,.4233.0453.6513.6513,0,0,1,.2515.17,5.6782,5.6782,0,0,1,.4436.6021l.6061.89h1.0036l-.5077-.799A4.74,4.74,0,0,0,12.4208,41.42Zm-.9434-1.1934h-.62V39.1882h.6537q.3063-.0059.6123.014a.5179.5179,0,0,1,.3162.1609.4888.4888,0,0,1,.1133.3335.5224.5224,0,0,1-.0859.3069.4531.4531,0,0,1-.2359.1734A3.2937,3.2937,0,0,1,11.4774,40.2269Z" transform="translate(-1.3532 -12.9472)"/><polygon class="cls-1" points="32.782 26.535 32.782 25.843 29.7 25.843 29.7 29.935 32.861 29.936 32.861 29.246 30.54 29.246 30.54 28.133 32.625 28.133 32.625 27.443 30.54 27.443 30.54 26.535 32.782 26.535"/><path class="cls-1" d="M38.4112,39.9379a1.172,1.172,0,0,0-.18-.6451.9529.9529,0,0,0-.4842-.3913,3.0376,3.0376,0,0,0-.9685-.1116h-1.765v4.0924l.0008.0008h.838V41.175h.17a1.3845,1.3845,0,0,1,.4217.0453.648.648,0,0,1,.2523.17,5.5168,5.5168,0,0,1,.442.6021l.6077.89h1.002l-.5077-.799a4.685,4.685,0,0,0-.4764-.6638,1.9449,1.9449,0,0,0-.45-.3436,1.3263,1.3263,0,0,0,.8224-.3781A1.0832,1.0832,0,0,0,38.4112,39.9379Zm-.9966.0656a.4522.4522,0,0,1-.2351.1734,3.2981,3.2981,0,0,1-.7536.05h-.62V39.1882h.6536q.3064-.0059.6123.014a.5184.5184,0,0,1,.3163.1609.488.488,0,0,1,.1117.3335A.5233.5233,0,0,1,37.4146,40.0035Z" transform="translate(-1.3532 -12.9472)"/><rect x="20.988" y="25.8426" width="0.8396" height="4.0925"/><rect x="30.8888" y="31.4097" width="0.8388" height="4.0925"/><polygon class="cls-1" points="15.491 32.102 17.501 32.102 17.501 31.41 14.652 31.41 14.652 35.502 15.492 35.502 15.492 33.763 17.226 33.763 17.226 33.071 15.491 33.071 15.491 32.102"/><polygon class="cls-1" points="38.856 28.133 40.941 28.133 40.941 27.443 38.856 27.443 38.856 26.535 41.098 26.535 41.098 25.843 38.016 25.843 38.016 29.935 41.177 29.936 41.177 29.246 38.856 29.246 38.856 28.133"/><polygon class="cls-1" points="28.208 29.936 28.208 26.535 29.438 26.535 29.438 25.843 26.136 25.843 26.136 26.535 27.37 26.535 27.37 29.935 28.208 29.936"/><path class="cls-1" d="M45.8846,39.2452a1.4,1.4,0,0,0-.6263-.3773,3.1157,3.1157,0,0,0-.792-.078H42.934v4.0924h1.5784a2.5651,2.5651,0,0,0,.742-.0859,1.4826,1.4826,0,0,0,.59-.3272,1.7864,1.7864,0,0,0,.4451-.7224,2.6551,2.6551,0,0,0,.1274-.8709,2.9278,2.9278,0,0,0-.1367-.9669A1.7741,1.7741,0,0,0,45.8846,39.2452Zm-.4678,2.0494a.868.868,0,0,1-.2186.3951.7793.7793,0,0,1-.34.17,2.2939,2.2939,0,0,1-.5069.0383h-.6256v-2.71h.3765a3.9723,3.9723,0,0,1,.6888.039.8114.8114,0,0,1,.3882.1929.935.935,0,0,1,.2374.396,2.4,2.4,0,0,1,.0859.7286A2.62,2.62,0,0,1,45.4168,41.2946Z" transform="translate(-1.3532 -12.9472)"/><polygon class="cls-1" points="28.56 31.41 27.72 31.41 27.72 35.469 30.645 35.469 30.645 34.78 28.56 34.78 28.56 31.41"/><rect x="26.1364" y="31.4097" width="0.8396" height="4.0925"/><path class="cls-1" d="M20.3957,44.3569l-1.6183,4.0924h.8888L20.01,47.52h1.6612l.3631.9293h.9122l-1.6635-4.0924Zm-.43,2.7116.5615-1.5191.5724,1.5191Z" transform="translate(-1.3532 -12.9472)"/><path class="cls-1" d="M25.5941,47.673a.8539.8539,0,0,1-.5764.2085.9265.9265,0,0,1-.7365-.3288,1.6943,1.6943,0,0,1-.2843-1.1051,1.5874,1.5874,0,0,1,.2882-1.0583.9535.9535,0,0,1,.75-.3264.8859.8859,0,0,1,.5677.1851.8574.8574,0,0,1,.3078.5022l.831-.1969a1.6286,1.6286,0,0,0-.4257-.7536,1.7448,1.7448,0,0,0-1.2379-.4428,1.85,1.85,0,0,0-1.4089.5654,2.2145,2.2145,0,0,0-.5358,1.5862,2.1117,2.1117,0,0,0,.5326,1.523,1.7793,1.7793,0,0,0,3.0874-.7631l-.8139-.2545A1.2164,1.2164,0,0,1,25.5941,47.673Z" transform="translate(-1.3532 -12.9472)"/><path class="cls-1" d="M26.2837,40.6932a4.0321,4.0321,0,0,0-.906-.2945,2.2481,2.2481,0,0,1-.7708-.2733.3123.3123,0,0,1-.125-.2492.2967.2967,0,0,1,.1328-.253.9675.9675,0,0,1,.5725-.1484.8544.8544,0,0,1,.5326.1382.7014.7014,0,0,1,.23.453l.838-.0367a1.1779,1.1779,0,0,0-.4147-.9005,1.7749,1.7749,0,0,0-1.1777-.3382,2.1037,2.1037,0,0,0-.8178.1429,1.1167,1.1167,0,0,0-.5177.414,1.0348,1.0348,0,0,0-.18.5849,1.0556,1.0556,0,0,0,.3827.8232,2.2721,2.2721,0,0,0,.945.4053q.3387.078.6717.1781a.7.7,0,0,1,.303.1774.3691.3691,0,0,1,.0859.2475.502.502,0,0,1-.2054.3952.9521.9521,0,0,1-.6115.1687.9144.9144,0,0,1-.6076-.1906.969.969,0,0,1-.2992-.5943l-.8161.0781a1.555,1.555,0,0,0,.5045,1.0457,1.82,1.82,0,0,0,1.2106.3586,2.3957,2.3957,0,0,0,.9044-.1492,1.2046,1.2046,0,0,0,.7591-1.1153,1.2076,1.2076,0,0,0-.1655-.6522A1.1587,1.1587,0,0,0,26.2837,40.6932Z" transform="translate(-1.3532 -12.9472)"/><polygon class="cls-1" points="37.602 33.029 36.625 31.41 35.776 31.41 35.64 31.41 32.472 31.41 32.472 32.102 33.706 32.102 33.706 35.502 34.545 35.502 34.545 32.102 35.776 32.102 35.776 31.621 37.163 33.78 37.163 35.502 37.998 35.502 37.998 33.785 39.527 31.41 38.56 31.41 37.602 33.029"/></svg>