<svg id="Слой_1" data-name="Слой 1" xmlns="http://www.w3.org/2000/svg" width="56.6" height="43.7" viewBox="0 0 56.6 43.7"><defs><style>.cls-1{fill-rule:evenodd;}</style></defs><title>gmp</title><path class="cls-1" d="M28.9,52.8C13.3,52.8.7,43,.6,31v-.1c0-12,12.7-21.8,28.3-21.8s28.3,9.8,28.3,21.8c0,12.1-12.7,21.9-28.3,21.9M28.8,9.6C13.5,9.6,1.1,19.1,1.1,30.8S13.5,52,28.8,52s27.7-9.5,27.7-21.2S44.1,9.6,28.8,9.6m.3,37C18,46.6,9,39.6,9,31s9-15.5,20.1-15.5,20.1,7,20.1,15.5c0,8.6-9,15.6-20.1,15.6M29,15.9c-10.8,0-19.5,6.7-19.5,14.9S18.2,45.7,29,45.7,48.5,39,48.5,30.8c0-8.1-8.8-14.9-19.5-14.9" transform="translate(-0.6 -9.1)"/><path class="cls-1" d="M21.3,24.2l-.2,2.5a6.9434,6.9434,0,0,0-1.3-.5,7.7191,7.7191,0,0,0-1.5-.2,3.4891,3.4891,0,0,0-2.8,1.2,5.2191,5.2191,0,0,0-1,3.5,6.707,6.707,0,0,0,.8,3.5,2.851,2.851,0,0,0,2.4,1.2,4.2528,4.2528,0,0,0,1.1-.2V32H17.1V29.7h4.5V37a6.07,6.07,0,0,1-1.8.5,16.3523,16.3523,0,0,1-2.2.2,6.1037,6.1037,0,0,1-4.7-1.8,7.201,7.201,0,0,1-1.7-5A7.3994,7.3994,0,0,1,13,25.6a6.2615,6.2615,0,0,1,4.9-1.9,9.702,9.702,0,0,1,1.7.1,10.4616,10.4616,0,0,1,1.7.4m1.6-.5h4.2l2.3,9.1,2.4-9.1H36V37.3H33.4V25.9l-3,11.3H28.6L25.4,26V37.3H22.9Zm14.4,0h3.2a12.1675,12.1675,0,0,1,2.1.1,4.9508,4.9508,0,0,1,1.3.4,4.0093,4.0093,0,0,1,1.4,1.5,5.0908,5.0908,0,0,1,.5,2.2,4.076,4.076,0,0,1-1.2,3.2,5.2346,5.2346,0,0,1-3.5,1.1h-.7v5h-3V23.7Zm3.3,2.2v4h.7a1.8133,1.8133,0,0,0,1.4-.5,2.2044,2.2044,0,0,0,.4-1.6,2.0757,2.0757,0,0,0-.4-1.5,2.07,2.07,0,0,0-1.5-.5l-.6.1Zm-36,6.2a1.1021,1.1021,0,0,1-.9-.3,1.0775,1.0775,0,0,1-.2-.8c0-.6.3-1,.9-1v.7c-.3,0-.4.1-.4.4s.3.4.5.4h.9c.4-.1.6-.2.6-.5s-.3-.3-.4-.3H5.4V31H4.9V30H6.5v.3l-.2.1h0a.7509.7509,0,0,1,.3.7,1.1355,1.1355,0,0,1-.3.8,2.3882,2.3882,0,0,1-.9.2Zm.2-2.8a2.01,2.01,0,0,1-.8-.4.7549.7549,0,0,1-.1-.8c.1-.3.2-.6.4-.7a1.4541,1.4541,0,0,1,1-.1l.7.2c.4.1.7.2.8.4a.93.93,0,0,1,.2.8,1.0777,1.0777,0,0,1-.8.8H5.6Zm1-.6a.4451.4451,0,0,0,.6-.2.4666.4666,0,0,0-.5-.5l-1-.2c-.2,0-.5-.1-.5.3-.1.4.3.4.4.4l1,.2Zm-.2-2.6c-.3-.1-.6-.2-.7-.5a1.0954,1.0954,0,0,1,0-.8.9016.9016,0,0,1,.6-.6,1.2344,1.2344,0,0,1,1,.1l.7.3c.4.2.6.3.7.6.2.3,0,.7,0,.8a.804.804,0,0,1-.9.6,1.4213,1.4213,0,0,1-.6-.2A6.89,6.89,0,0,1,5.6,26.1Zm1,0c.3.1.5.1.6-.1.1-.3-.2-.4-.4-.5l-1-.4c-.2-.1-.4-.2-.6.1a.3994.3994,0,0,0,.3.5A7.5958,7.5958,0,0,0,6.6,26.1Zm-.8-2.9.4-.6c.4-.6.6-.8.9-.8a2.6689,2.6689,0,0,1,1,.4l.4.3c.3.2.6.5.5.8a1.4213,1.4213,0,0,1-.2.6c0,.1-.3.4-.5.9L5.8,23.2Zm2.1.5.1-.1a.5649.5649,0,0,0-.2-.8c-.1-.1-.2-.1-.3-.2a1.3293,1.3293,0,0,0-.7-.3c-.2,0-.3.1-.5.4C6.2,22.7,7.9,23.7,7.9,23.7Zm.2-4,.6-.6,1.1.6c.1.1.2.1.3.2.1,0,.3.2.3.2h0c-.1-.2-.3-.4-.4-.6l-.6-1.1.6-.6,2.1,2.1-.4.4-1.1-1.1-.6-.6h0l1.3,2.2L11,21,8.8,19.7h0l.6.6,1.1,1.1-.4.4-2-2.1ZM12,15.9l2.4,1.9-.5.4-.5-.4-.7.5.2.6-.5.4-1.1-2.9.7-.5Zm.3,1h0l.5,1.3.5-.4-1-.9Zm1.3-1.7.6-.3,1.3.9c.1,0,.1.1.2.1l.1.1h0l-.2-.3c-.1-.1-.1-.2-.2-.3l-.5-1,.5-.3,1.4,2.6-.3.3-1.4-.9a1.8658,1.8658,0,0,0-.4-.3h0a1.3321,1.3321,0,0,0,.3.5l.7,1.2-.5.3C15.1,17.8,13.6,15.2,13.6,15.2ZM16.4,14l.6-.3.7,1.8c.1.2.2.5.6.4.1,0,.4-.2.2-.7l-.7-1.8.6-.2.7,1.8a.9507.9507,0,0,1,0,.9,1.0242,1.0242,0,0,1-.6.5,1.4119,1.4119,0,0,1-.9.1c-.4-.1-.5-.5-.6-.7L16.4,14Zm2.8-1.1,1.9-.6.2.5-1.3.4.2.6.9-.2.2.5-.8.2.4,1.2-.6.2-1.1-2.8Zm3.3-1L24,14.6l-.6.1-.3-.5-.9.2V15l-.6.1.2-3.1Zm0,.4h0l-.1,1.4.7-.1Zm1.8.3a.9375.9375,0,0,1,.9-1.2,1.7018,1.7018,0,0,1,.7.1.91.91,0,0,1,.4.8l-.7.1c0-.1-.1-.5-.4-.4a.3491.3491,0,0,0-.2.1v.3l.1,1.1c0,.2.1.5.4.4.3,0,.3-.3.3-.6l.7-.1v.4a.9875.9875,0,0,1-.2.6,1.1005,1.1005,0,0,1-.6.3,1.0775,1.0775,0,0,1-.8-.2,1.4477,1.4477,0,0,1-.4-.9l-.2-.8Zm4.5-1.2v.5h-.7l.1,2.4h-.7L27.4,12h-.8v-.5Zm.7,0h.7l-.1,2a.5126.5126,0,0,0,.4.6c.1,0,.4,0,.4-.5l.1-2h.7l-.1,2a.7985.7985,0,0,1-.4.8.952.952,0,0,1-.7.2,1.1355,1.1355,0,0,1-.8-.3,1.1021,1.1021,0,0,1-.3-.9Zm3.4,3-.6-.1.4-2.9,1,.1c.5.1,1.1.2,1,1-.1.4-.2.6-.7.7l.5,1.4-.7-.1-.4-1.3h-.2l-.3,1.2Zm.2-1.7c.4.1.4.1.5,0,.2,0,.3-.2.3-.4s0-.3-.1-.4-.2-.1-.5-.1l-.2.9Zm1.4,2.1.1-.3.3.1.5-2.4-.3-.1.1-.3,1.3.3-.1.3-.3-.1-.5,2.4.3.1-.1.3C35.9,15.1,34.5,14.8,34.5,14.8Zm2.8-2.5.6.2.3,1.6v.4h0l.1-.3c0-.2.1-.2.1-.3l.3-1.1.6.2-.9,2.8-.4-.2L37.6,14a1.75,1.75,0,0,0-.1-.5h0c0,.1-.1.4-.1.5L37,15.3l-.6-.2C36.4,15.2,37.3,12.3,37.3,12.3ZM39.7,14a1.1959,1.1959,0,0,1,.7-.7,1.0625,1.0625,0,0,1,.8.1.82.82,0,0,1,.5,1.2l-.6-.3a.3653.3653,0,0,0-.2-.5.35.35,0,0,0-.5.3L40,15c-.2.4-.2.6.1.7s.4-.1.5-.2l.1-.2-.3-.1.2-.5.9.4-.6,1.5-.3-.1v-.2h0c-.1.1-.3.2-.7,0a.9016.9016,0,0,1-.6-.6,1.1284,1.1284,0,0,1,.1-.8l.3-.9ZM44,15l.8.5a1.1342,1.1342,0,0,1,.6.6.8782.8782,0,0,1-.1.7.74.74,0,0,1-.7.4,1.4453,1.4453,0,0,1-.7-.2h-.3l-.6.9-.6-.3L44,15Zm-.2,1.2c.3.2.4.2.5.2a.3992.3992,0,0,0,.4-.2c.2-.2.1-.4,0-.4a1.8658,1.8658,0,0,0-.4-.3l-.5.7Zm1,2.9-.5-.4,1.9-2.3.8.6c.4.3.8.7.3,1.4a.7593.7593,0,0,1-.9.3L46,20.1l-.6-.4.3-1.3-.2-.1-.7.8ZM46.1,18c.3.2.3.3.4.3.2.1.3,0,.4-.2a.7559.7559,0,0,0,.1-.4l-.4-.4Zm3.3,1.2-1.6,2.7-.4-.5.3-.5-.6-.7-.5.3-.4-.5L49,18.5Zm-.6.4h0l-1.2.7.5.5Zm1,1.6a.9561.9561,0,0,1,1.5.3,1.0721,1.0721,0,0,1,.2.6.9351.9351,0,0,1-.5.7l-.4-.5c.1-.1.4-.3.2-.5-.1-.1-.1-.1-.2-.1s-.3,0-.3.1l-.9.6c-.1.1-.4.3-.2.6a.375.375,0,0,0,.6,0l.4.5a.7688.7688,0,0,0-.3.2,1.1462,1.1462,0,0,1-.6,0c-.3-.1-.5-.3-.5-.4a.83.83,0,0,1-.2-.8c0-.2.1-.4.6-.7l.6-.6Zm3.4,3.5-.5.3-.3-.7-2.2,1.1-.3-.6,2.2-1.1-.4-.7.5-.2Zm-2.9,1.7.3-.1.1.3,2.4-.7-.1-.3.2-.1.4,1.3-.2.1-.1-.3-2.3.7.1.3-.3.1-.5-1.3Zm2.4,1.4a.9375.9375,0,0,1,1.2.9,1.9523,1.9523,0,0,1-.1.7.91.91,0,0,1-.8.4v-.7c.1,0,.5-.1.4-.4a.3491.3491,0,0,0-.1-.2.4938.4938,0,0,0-.3-.1l-1.1.2c-.2,0-.5.1-.4.4,0,.3.3.3.6.3l.1.7h-.4a1.4213,1.4213,0,0,1-.6-.2,1.1005,1.1005,0,0,1-.3-.6,1.0625,1.0625,0,0,1,.1-.8,1.08,1.08,0,0,1,.8-.4l.9-.2Zm1.6,2.8-.1,2h-.5l.1-1.3h-.6v.9h-.5v-.9H52l-.1,1.4h-.6l.1-2.1ZM9.6,40.8a.9375.9375,0,0,1,1.5,0,.8547.8547,0,0,1,.3.6,1.2345,1.2345,0,0,1-.4.8l-.5-.5a.4279.4279,0,0,0,.1-.6.31.31,0,0,0-.2-.1c-.1,0-.3.1-.3.2l-.8.8a.4279.4279,0,0,0-.1.6c.2.2.4.1.6-.1l.5.5c-.2.1-.2.2-.3.2a.8454.8454,0,0,1-.6.2.8547.8547,0,0,1-.6-.3,1.27,1.27,0,0,1-.4-.7c0-.2,0-.4.4-.8A5.9284,5.9284,0,0,0,9.6,40.8Zm2.1,2a1.7937,1.7937,0,0,1,.7-.5c.3-.1.5.1.8.2a1.7937,1.7937,0,0,1,.5.7,2.3025,2.3025,0,0,1-.3.9l-.4.6a3.1907,3.1907,0,0,1-.7.6.8631.8631,0,0,1-.8-.2c-.2-.2-.6-.5-.4-1a2.1859,2.1859,0,0,1,.3-.5Zm-.2,1c-.2.2-.3.5,0,.6.3.2.5-.1.6-.2l.6-.8c.1-.2.3-.4,0-.6s-.5.1-.6.1Zm3.2-.1.5.3v2h0l.1-.3a.7688.7688,0,0,1,.2-.3l.6-1,.5.3-1.5,2.6-.5-.3V45.4a1.75,1.75,0,0,1,.1-.5h0c-.1.2-.2.3-.3.5l-.7,1.2-.5-.3ZM18,46.1a.55.55,0,0,0-.3-.5c-.3-.1-.4.1-.4.1-.1.2.1.3.2.5l.3.3a.85.85,0,0,1,.3.5.7494.7494,0,0,1-.1.5c-.1.1-.2.5-.7.6a1.2683,1.2683,0,0,1-.6-.1,1.0767,1.0767,0,0,1-.8-1l.6-.1a.5483.5483,0,0,0,.4.6.3483.3483,0,0,0,.5-.1c.1-.2,0-.3-.3-.6a1.0926,1.0926,0,0,1-.4-1.2.9258.9258,0,0,1,1.2-.4,1.2722,1.2722,0,0,1,.7.9Zm-.2,2.6.1-.2.3.1.8-2.3-.3-.1.1-.2,1.3.5-.1.1-.3-.1-.8,2.3.3.1-.1.3-1.3-.5Zm3.8-1.3a.6644.6644,0,0,0-.4-.5.31.31,0,0,0-.4.2c-.1.2.1.3.3.4l.3.2a.9984.9984,0,0,1,.4.5c0,.1.1.3,0,.5a.6916.6916,0,0,1-.6.6h-.6a.9667.9667,0,0,1-.9-.9l.6-.2a.4575.4575,0,0,0,.4.5c.1,0,.4,0,.5-.2s0-.3-.4-.6-.7-.6-.6-1.1.6-.7,1.2-.6a1.0852,1.0852,0,0,1,.8.8l-.6.4Zm3.1-.2-.1.5-.7-.1L23.4,50l-.7-.1.4-2.4-.8-.1.1-.5,2.3.3Zm.4.1,2,.2L27,48l-1.4-.1-.1.6.9.1-.1.5-.9-.1-.1.7,1.4.1-.1.6-2.1-.2C24.8,50.3,25.1,47.3,25.1,47.3Zm2.5.4h.6l.8,1.4c0,.1.1.1.1.2a.3491.3491,0,0,1,.1.2h0V47.8h.6v3h-.5l-.8-1.5c-.1-.1-.1-.1-.2-.5h0v1.9h-.6C27.6,50.7,27.6,47.7,27.6,47.7Zm5-.4v.5l-.7.1.2,2.4-.7.1L31.2,48h-.8v-.5Zm3.7,2.6H36a1.2376,1.2376,0,0,1-.3-.2,1.1005,1.1005,0,0,1-.6.3.8627.8627,0,0,1-1-.4,1.4213,1.4213,0,0,1-.2-.6l-.2-.8a.972.972,0,0,1,.1-.9.8418.8418,0,0,1,.7-.4,1.0625,1.0625,0,0,1,.8.1c.2.1.3.4.4.9l.1.7c0,.2.1.4,0,.6a.3674.3674,0,0,0,.3.1C36.2,49.3,36.3,49.9,36.3,49.9ZM35,48.4c.2,0,.3,0,.3.1l.1.1-.2-.9a.3663.3663,0,0,0-.4-.4.475.475,0,0,0-.3.5l.2,1c.1.3.2.5.5.5a.2151.2151,0,0,0,.2-.2c-.1-.1-.1-.1-.3-.1l-.1-.6Zm.9-1.9.7-.2.6,1.9a.4026.4026,0,0,0,.5.4c.1,0,.4-.1.2-.6l-.6-1.9.6-.2.6,1.9a.7715.7715,0,0,1-.1.9,2.092,2.092,0,0,1-.6.4,1.3875,1.3875,0,0,1-.9,0,.8236.8236,0,0,1-.5-.8A16.69,16.69,0,0,0,35.9,46.5Zm4-1,1.9,2.4-.6.2-.4-.5-.7.4.1.6-.6.2-.4-3.1Zm.2.4h0l.2,1.4L41,47Zm.9-1,.6-.3,1.2,2.1,1.2-.6.3.5-1.8.9Zm3.5,1.5-.1-.2.3-.2-1.4-2-.3.2-.1-.2,1.1-.7.1.2-.3.2,1.3,2.1.3-.2.1.2C45.7,45.7,44.5,46.4,44.5,46.4ZM46,41.8l.3.4-.6.5,1.5,1.9-.5.4-1.5-1.9-.6.5-.3-.4L46,41.8Zm3,1-.9-.8-2-.6.5-.5.8.2c.1,0,.3.1.4.1h0c0-.1-.1-.1-.1-.4l-.3-.8.5-.5.7,1.9.9.8ZM6.1,35.9a.8963.8963,0,0,0-.9.9h0a.9.9,0,1,0,.9-.9Zm46,0a.9.9,0,1,0,.9.9A.8963.8963,0,0,0,52.1,35.9Z" transform="translate(-0.6 -9.1)"/></svg>