<svg id="Слой_1" data-name="Слой 1" xmlns="http://www.w3.org/2000/svg" width="55.1893" height="51.7" viewBox="0 0 55.1893 51.7"><title>haccp</title><path d="M5.5,23.9H3.9c0-.3.1-.6.1-.8a15.8724,15.8724,0,0,1,.7-2,19.9867,19.9867,0,0,1,1-2.1c.4-.7.7-1.4,1.1-2.1a7.0985,7.0985,0,0,1,1-1.4c.6-.8,1.3-1.6,2-2.4a13.807,13.807,0,0,1,3.1-2.8,29.7652,29.7652,0,0,1,2.9-2,16.822,16.822,0,0,1,3.3-1.6,15.7252,15.7252,0,0,1,3.5-1.1,19.9688,19.9688,0,0,1,2.6-.5,22.7522,22.7522,0,0,1,2.6-.2h2.8a19.4189,19.4189,0,0,1,2.4.2,1.8839,1.8839,0,0,1,.8.2c.3.1.6.1.9.2a1.8539,1.8539,0,0,0,.7.2,4.5084,4.5084,0,0,1,1.1.3,5.6377,5.6377,0,0,1,1.2.4c.5.2,1,.4,1.4.6a11.9383,11.9383,0,0,1,1.6.8c.3.2.7.3,1,.5.5.3,1,.6,1.4.9.7.5,1.5,1,2.2,1.6a20.8861,20.8861,0,0,1,2.2,2A19.9964,19.9964,0,0,1,49.4,15c.4.6.9,1.1,1.3,1.7.4.7.9,1.4,1.3,2.2a25.496,25.496,0,0,1,1.3,2.9c.2.6.4,1.2.6,1.9V24H52.7c-.5,0-.4-.1-.6-.5a18.0284,18.0284,0,0,0-.8-2.1,19.9867,19.9867,0,0,0-1-2.1,21.8763,21.8763,0,0,0-2.5-3.7c-.7-.8-1.4-1.6-2.1-2.3A20.1135,20.1135,0,0,0,42.9,11c-.6-.4-1.3-.8-2-1.2-.4-.2-.8-.4-1.3-.7l-1.2-.6c-.1-.3-.4-.4-.6-.5-.3-.1-.7-.3-1.1-.4-.7-.2-1.5-.4-2.3-.6-1-.2-2-.4-3-.5-1.2-.1-2.4-.1-3.6-.1a15.225,15.225,0,0,0-4.2.6,14.732,14.732,0,0,0-2.8.8,24.4254,24.4254,0,0,0-2.4,1,17.3771,17.3771,0,0,0-1.9,1,25.0763,25.0763,0,0,0-3.7,2.7,24.2242,24.2242,0,0,0-3.1,3.3,14.3094,14.3094,0,0,0-1.6,2.4c-.5.9-1,1.8-1.5,2.8-.3.7-.6,1.5-.9,2.3Z" transform="translate(-1.5 -4.9)"/><path d="M3.9,37.4H5.5c.1.3.2.7.3,1a16.6727,16.6727,0,0,0,.8,2,34.1249,34.1249,0,0,0,1.7,3.3,17.6836,17.6836,0,0,0,1.6,2.2l1.5,1.8a9.4281,9.4281,0,0,0,1,1c.8.7,1.6,1.3,2.4,1.9a13.7346,13.7346,0,0,0,2,1.3c.9.5,1.7.9,2.6,1.3a11.2753,11.2753,0,0,0,2.4.8c.5.1.9.3,1.4.4.6.1,1.2.2,1.9.3a11.019,11.019,0,0,0,1.8.2h2.5a28.5136,28.5136,0,0,0,4-.4,19.0061,19.0061,0,0,0,3.9-1.1,27.1812,27.1812,0,0,0,2.5-1.1A17.0985,17.0985,0,0,0,42.1,51c.6-.4,1.1-.8,1.6-1.2.7-.6,1.4-1.1,2-1.7a19.1978,19.1978,0,0,0,1.4-1.5A23.4811,23.4811,0,0,0,49,44.1c.5-.8,1-1.7,1.4-2.5a24.4254,24.4254,0,0,0,1-2.4c.2-.6.5-1.2.7-1.9h1.6c0,.2-.1.3-.1.5s-.1.3-.2.5l-.6,1.8a8.6509,8.6509,0,0,1-.7,1.7c-.4.8-.8,1.6-1.2,2.3s-.9,1.4-1.3,2c-.7.9-1.5,1.8-2.2,2.7-.5.6-1.2,1.1-1.8,1.7a13.4438,13.4438,0,0,1-1.4,1.1c-.5.3-.9.6-1.4.9a8.7941,8.7941,0,0,1-1,.6c-.5.3-1.1.6-1.6.9-.9.4-1.7.8-2.6,1.1-.6.2-1.3.4-2,.6-1,.2-1.9.4-2.9.6-.6.1-1.2.1-1.8.2a19.2687,19.2687,0,0,1-2.4.1,6.15,6.15,0,0,1-1.4-.1c-.6,0-1.2-.1-1.8-.1h-.1c-.6-.1-1.1-.2-1.7-.3a19.7338,19.7338,0,0,1-2.6-.7c-.6-.2-1.1-.4-1.7-.6a6.8946,6.8946,0,0,1-1-.4c-.5-.2-1-.5-1.5-.7-.5-.3-1-.5-1.5-.8-.8-.5-1.6-1-2.3-1.5a25.2281,25.2281,0,0,1-3-2.7,16.3194,16.3194,0,0,1-1.7-2,21.9556,21.9556,0,0,1-1.7-2.5A26.39,26.39,0,0,1,5,41.3,21.8494,21.8494,0,0,1,4.1,39a6.4682,6.4682,0,0,1-.4-1.3C3.8,37.7,3.9,37.6,3.9,37.4Z" transform="translate(-1.5 -4.9)"/><path d="M1.5,35.9V25.3H4.8V29H8.2V25.3h3.3c.1.2.2,10.2,0,10.6H8.2V31.7H4.8v4.2Z" transform="translate(-1.5 -4.9)"/><path d="M20.2,25.2c1.4,3.5,2.7,7,4,10.6H20.7c-.2-.5-.3-1-.5-1.5-.1-.2-.1-.3-.4-.3H16.4a13.6355,13.6355,0,0,0-.4,1.7H12.6c1.3-3.6,2.6-7,3.9-10.6A15.4146,15.4146,0,0,0,20.2,25.2Zm-.8,6.6c-.4-1.2-.7-2.3-1.1-3.4h-.1c-.3,1.1-.7,2.2-1,3.4Z" transform="translate(-1.5 -4.9)"/><path d="M46.1,28.4l-2.7.6c-.2,0-.3,0-.4-.2a1.739,1.739,0,0,0-1.4-1.2,1.9308,1.9308,0,0,0-2.3,1.8c0,.6-.1,1.2-.1,1.9a2.3642,2.3642,0,0,0,.8,1.9,2.2959,2.2959,0,0,0,1.4.4,1.9047,1.9047,0,0,0,1.7-1.5c0-.1.1-.2.1-.3a.0979.0979,0,0,1,.1-.1c1,.3,1.9.5,2.9.8-.1.3-.1.6-.2.9a7.4586,7.4586,0,0,1-.9,1.5,3.4362,3.4362,0,0,1-2.5,1.3c-.4,0-.9.1-1.3.1a6.9046,6.9046,0,0,1-2.5-.4,4.96,4.96,0,0,1-2.3-2,6.7219,6.7219,0,0,1-.7-3.4,5.6625,5.6625,0,0,1,.3-1.8,4.4914,4.4914,0,0,1,3.5-3.2,5.9505,5.9505,0,0,1,2.3-.1,3.5949,3.5949,0,0,1,1.1.2,3.364,3.364,0,0,1,2,1.3,5.559,5.559,0,0,1,.9,1.7C46.1,28.3,46.1,28.3,46.1,28.4Z" transform="translate(-1.5 -4.9)"/><path d="M34.7,28.4c-1,.3-2,.5-3,.7a1.5491,1.5491,0,0,0-.8-1.2,6.89,6.89,0,0,0-.8-.3,2.26,2.26,0,0,0-1.5.5,1.99,1.99,0,0,0-.7,1.6,5.6521,5.6521,0,0,0,0,1.3,2.6064,2.6064,0,0,0,.7,2,2.01,2.01,0,0,0,.8.4,1.739,1.739,0,0,0,1.8-.4,7.0179,7.0179,0,0,0,.6-.9,6.3729,6.3729,0,0,0,.2-.7c.9.3,1.9.6,2.9.9,0,.1-.1.3-.1.4a6.7208,6.7208,0,0,1-.6,1.2,3.5691,3.5691,0,0,1-2.4,1.8,10.7506,10.7506,0,0,1-3.1.1,4.9235,4.9235,0,0,1-1.7-.6,4.2628,4.2628,0,0,1-1.2-1.1,5.5352,5.5352,0,0,1-1-2.2,8.8791,8.8791,0,0,1-.1-2.3,7.1721,7.1721,0,0,1,.7-2.5,1.7937,1.7937,0,0,1,.5-.7,4.4126,4.4126,0,0,1,3.2-1.5,9.6624,9.6624,0,0,1,2.4.1,4.3635,4.3635,0,0,1,2.7,1.7A6.8651,6.8651,0,0,0,34.7,28.4Z" transform="translate(-1.5 -4.9)"/><path d="M51.1,31.9v3.9H47.7V25.2h5a4.6782,4.6782,0,0,1,1.7.2,3.08,3.08,0,0,1,1.2.5,2.1591,2.1591,0,0,1,.9,1.4,3.9337,3.9337,0,0,1,0,2.4,3.05,3.05,0,0,1-1.6,1.9A4.3334,4.3334,0,0,1,53,32H51.3C51.3,31.9,51.2,31.9,51.1,31.9Zm0-2.2H52c.3,0,.6-.1.9-.1.1-.1.2-.1.2-.2a.9542.9542,0,0,0,.3-1.2.7487.7487,0,0,0-.7-.6c-.5,0-1-.1-1.6-.1Z" transform="translate(-1.5 -4.9)"/><path d="M14.9,37.4h1.7a.5483.5483,0,0,1,.6.4,19.5218,19.5218,0,0,0,1.7,2.3,16.3786,16.3786,0,0,0,2.5,2.1,25.3152,25.3152,0,0,0,2.3,1.2,18.66,18.66,0,0,0,2.2.7,24.77,24.77,0,0,0,2.7.3,12.4125,12.4125,0,0,0,2.7-.3,16.8174,16.8174,0,0,0,2.4-.7,11.2987,11.2987,0,0,0,2.2-1.1A10.4438,10.4438,0,0,0,38.7,40a13.9334,13.9334,0,0,0,1.5-1.9c.1-.1.2-.3.3-.4a.87.87,0,0,1,.9-.4h1.1c.2,0,.3.1.2.3-.4.7-.9,1.5-1.4,2.2a11.5581,11.5581,0,0,1-2.6,2.8,14.2156,14.2156,0,0,1-3.3,2.1c-.9.4-1.8.7-2.7,1a10.0387,10.0387,0,0,1-2.4.4c-.6,0-1.3.1-1.9.1-.3,0-.6-.1-.9-.1-.4,0-.8-.1-1.3-.1a7.006,7.006,0,0,1-1.4-.3,12.6649,12.6649,0,0,1-1.8-.6,6.11,6.11,0,0,1-1.4-.7c-.7-.4-1.4-.8-2-1.2A12.5569,12.5569,0,0,1,17.2,41,13.4322,13.4322,0,0,1,15,37.9,1.0873,1.0873,0,0,0,14.9,37.4Z" transform="translate(-1.5 -4.9)"/><path d="M42.6,23.8H41c-.4.1-.6-.2-.8-.4-.4-.5-.8-1.1-1.2-1.6-.5-.6-1.1-1.1-1.7-1.7A9.0622,9.0622,0,0,0,35.7,19a6.6323,6.6323,0,0,0-1.9-.9,21.7179,21.7179,0,0,0-2.4-.7,12.31,12.31,0,0,0-2-.2,16.2021,16.2021,0,0,0-2.2.1,10.2244,10.2244,0,0,0-2.9.7,14.1669,14.1669,0,0,0-1.8.8,13.7893,13.7893,0,0,0-2.8,1.9A15.3707,15.3707,0,0,0,18,22.6c-.3.4-.6.9-.9,1.3H15a13.4,13.4,0,0,1,3.5-4.6,15.3545,15.3545,0,0,1,11.2-4,16.7283,16.7283,0,0,1,6.2,1.6,15.1974,15.1974,0,0,1,4.5,3.5,15.0292,15.0292,0,0,1,2.3,3.3C42.6,23.6,42.6,23.7,42.6,23.8Z" transform="translate(-1.5 -4.9)"/><path d="M12.3,16.4a4.3494,4.3494,0,0,1,.6-.7,9.016,9.016,0,0,1,1,.9c.1-.1.1-.2.2-.3-.3-.3-.6-.5-.8-.7a.3674.3674,0,0,1-.1-.3c.2-.2.3-.4.5-.6.9.9,1.8,1.7,2.8,2.6a4.3494,4.3494,0,0,0-.6.7c-.4-.4-.8-.7-1.2-1.1-.1.1-.1.2-.2.2l1.1,1.1c-.2.2-.4.5-.6.7C14.2,18.1,13.3,17.3,12.3,16.4Z" transform="translate(-1.5 -4.9)"/><path d="M30.5,8.4c.2,1.3.3,2.5.5,3.8a2.7686,2.7686,0,0,1-.9-.1,1.2683,1.2683,0,0,0-.1-.6h-.4c0,.2-.1.5-.1.7a3.7513,3.7513,0,0,1-1-.1c.2-1.2.4-2.4.6-3.7ZM30,10.8c0-.5-.1-1-.1-1.4h-.1c-.1.5-.1.9-.2,1.5C29.7,10.8,29.8,10.8,30,10.8Z" transform="translate(-1.5 -4.9)"/><path d="M12,40.6c-.1-.2-.1-.3-.2-.5s0-.3.2-.4.3-.2.5-.3c.1,0,.1-.1.2-.2-.2-.2-.4-.1-.6,0a10.93,10.93,0,0,0-1.5.8,1.38,1.38,0,0,1-.4.3l.2.2c.3-.1.5-.2.8-.3a2.4707,2.4707,0,0,1,.4.9,4.401,4.401,0,0,1-1,.2c-.5,0-.9-.6-1-1.1a1.0284,1.0284,0,0,1,.7-1.2,6.11,6.11,0,0,0,1.4-.7,1.0683,1.0683,0,0,1,1.5.6c0,.2.1.5.1.7,0,.4-.6.9-1,1Z" transform="translate(-1.5 -4.9)"/><path d="M26.5,12.4c-.4.1-.7.2-1,0a.67.67,0,0,1-.8.3c-.4-.1-.4-.4-.5-.6-.1-.5-.2-1-.3-1.6-.2-.7.3-1.1.9-.9H25a4.3311,4.3311,0,0,0-.1-.5c0-.2,0-.2.2-.3a6.3729,6.3729,0,0,1,.7-.2C26,10,26.3,11.2,26.5,12.4ZM24.9,10a3.5668,3.5668,0,0,0,.5,2.2c0-.1.1-.3,0-.4l-.3-1.5C25.1,10.2,25,10.1,24.9,10Z" transform="translate(-1.5 -4.9)"/><path d="M25.7,50.3c-.2-.4.2-.8-.1-1.1-.3.1-.3.4-.3.6a.9015.9015,0,0,1-.1.5,5.8526,5.8526,0,0,0-.2,1.3c0,.2.1.3.3.2a6.89,6.89,0,0,0,.3-.8c.3.1.5.1.9.2a2.9946,2.9946,0,0,1-.4,1c-.2.4-.6.3-1,.3a1.4213,1.4213,0,0,1-.6-.2.6867.6867,0,0,1-.3-.9,16.2472,16.2472,0,0,1,.4-1.9c.2-.9.8-.9,1.5-.7.3.1.7.3.7.7a3.7513,3.7513,0,0,1-.1,1,.1916.1916,0,0,1-.3.1A4.8752,4.8752,0,0,1,25.7,50.3Z" transform="translate(-1.5 -4.9)"/><path d="M40.4,45.6c.2-.1.3-.3.5-.4a8.7941,8.7941,0,0,1,1-.6c.2-.1.4,0,.6.2.2.3.4.5.6.8a.4941.4941,0,0,1-.1.7l-.2.2-.2.2.9,1.2c-.2.2-.4.3-.6.5a.2474.2474,0,0,1-.4-.1A31.747,31.747,0,0,1,40.4,45.6Zm1.8.7c.2-.4,0-.6-.4-.9-.1,0-.1.1-.2.2A3.1907,3.1907,0,0,0,42.2,46.3Z" transform="translate(-1.5 -4.9)"/><path d="M49,41.4a4.348,4.348,0,0,0-.4.7l-.6-.3c-.5-.3-1-.6-1.4-.8h-.2v.1c.1.1.1.2.2.2.6.4,1.3.8,2,1.2a2.5065,2.5065,0,0,1-.4.7c-.9-.4-1.7-1-2.7-1.5a2.994,2.994,0,0,0,.4-.8.3491.3491,0,0,1,.2.1v-.1c-.1-.5.2-.9.7-.8.2,0,.4.2.7.3.4.2.9.6,1.5,1Z" transform="translate(-1.5 -4.9)"/><path d="M32.7,9.8c0,.1-.1.1-.1.2-.1.7-.2,1.4-.3,2.2,0,.1,0,.1-.1.2-.3,0-.5-.1-.8-.1.2-1,.3-2,.5-3a2.4852,2.4852,0,0,0,.8.1v.2h.1c.1,0,.2-.1.3-.1.4-.1.8.1.7.6-.1.7-.2,1.3-.3,2a1.4862,1.4862,0,0,1-.1.6c-.3,0-.6-.1-.9-.1.1-.5.1-.9.2-1.3s.1-.7.2-1.1a.52.52,0,0,0-.2-.4Z" transform="translate(-1.5 -4.9)"/><path d="M30.7,50.3a6.1509,6.1509,0,0,0,.1,1.3,6.1509,6.1509,0,0,0,.1,1.3H30c-.1-1-.1-2-.2-3,.4,0,.7-.2,1,.1l.1-.1a.7549.7549,0,0,1,.8-.1.55.55,0,0,1,.3.5c.1.8.1,1.5.2,2.3v.3h-.8c0-.5-.1-1-.1-1.4a2.7686,2.7686,0,0,0-.1-.9C31,50.3,30.9,50.2,30.7,50.3Z" transform="translate(-1.5 -4.9)"/><path d="M17.7,16.1c-.1.2-.1.4-.3.5a.6048.6048,0,0,1-.8,0c-.2-.2-.3-.4-.5-.6-.1-.1,0-.2,0-.3a6.8946,6.8946,0,0,1,.4-1c-.1-.1-.2-.3-.4-.5l-.1.1c.1.2.3.5.2.7a.9984.9984,0,0,1-.5.4.9062.9062,0,0,1-.2-1.4,1.6118,1.6118,0,0,1,.7-.4.7777.7777,0,0,1,.8.2c.5.6,1,1.1,1.5,1.8-.1.1-.2.2-.2.3-.1.1-.2.1-.3.2Q17.85,16.4,17.7,16.1Zm-.3-.1h0a2.1774,2.1774,0,0,0-.5-.8.83.83,0,0,0,.2.8Z" transform="translate(-1.5 -4.9)"/><path d="M20.5,12.3c-.1-.4-.2-.6-.5-.5.1.2.1.3.2.5v.2l-.6.3a.8526.8526,0,0,1,0-1.3,1.0543,1.0543,0,0,1,1.2-.3c.1.1.3.2.4.3a17.3771,17.3771,0,0,0,1,1.9v.3c-.2.1-.5.2-.7.3-.1,0-.1-.1-.2-.1-.1.2-.2.5-.5.5-.2,0-.5,0-.6-.2-.1-.1-.1-.3-.2-.4a.5288.5288,0,0,1,.1-.8A5.7361,5.7361,0,0,0,20.5,12.3Zm.3.5c-.2.3,0,.6.3.8C21.2,13.5,21.1,13,20.8,12.8Z" transform="translate(-1.5 -4.9)"/><path d="M35.9,49c.1-.4.3-.5.7-.6a1.4828,1.4828,0,0,1,.7-.1c.5,0,.6.4.8.8a3.5823,3.5823,0,0,1,.4,1.1.896.896,0,0,1-.6,1.2,2.7686,2.7686,0,0,1-.9.1c-.1,0-.3-.2-.4-.3-.2-.5-.4-1.1-.6-1.6A1.4862,1.4862,0,0,1,35.9,49Zm1.6,1.9a.2474.2474,0,0,0,.1-.4c-.2-.4-.3-.9-.5-1.3,0-.1-.1-.2-.2-.3-.2,0-.2.2-.1.3a1.4213,1.4213,0,0,1,.2.6A11.7311,11.7311,0,0,1,37.5,50.9Z" transform="translate(-1.5 -4.9)"/><path d="M44.7,46.4c-.2-.1-.4-.3-.6-.4l-.9-.9a.7825.7825,0,0,1,0-1.1,1.084,1.084,0,0,1,1.7-.2,4.62,4.62,0,0,0,.7.7,1.0313,1.0313,0,0,1-.2,1.7A1.1655,1.1655,0,0,1,44.7,46.4Zm-.8-2.3c-.1,0-.1.1,0,0-.1.2,0,.3,0,.3.4.4.8.7,1.2,1.1a.1875.1875,0,0,0,.3,0A19.1978,19.1978,0,0,0,43.9,44.1Z" transform="translate(-1.5 -4.9)"/><path d="M35.8,13.2A2.3535,2.3535,0,0,0,35,13v-.2a.6713.6713,0,0,1-1-.3c-.1-.5.3-1.2.8-1.2a.9015.9015,0,0,0,.5-.1c.3-.1.5-.3.4-.6h-.2l-.3.6c-.2-.1-.5-.2-.7-.3a.94.94,0,0,1,1.4-.8.0979.0979,0,0,1,.1.1c.6.2.6.4.5,1-.1.5-.3,1-.4,1.5C35.9,12.7,35.8,13,35.8,13.2Zm-.8-.7c.3-.2.2-.6.4-.9-.3.1-.5.2-.5.5C34.8,12.2,34.7,12.3,35,12.5Z" transform="translate(-1.5 -4.9)"/><path d="M18.8,50c-.2-.1-.5-.1-.7-.2a.3653.3653,0,0,1-.2-.5,2.01,2.01,0,0,1,.4-.8c.1-.2.4-.2.6-.2s.4.1.6,0c.1,0,.3-.2.4-.3s0-.2,0-.3h-.1a2.092,2.092,0,0,1-.4.6c-.2-.1-.4-.3-.6-.4q.3-1.05,1.2-.6a1.1572,1.1572,0,0,1,.7.5.8542.8542,0,0,1,0,.7c-.3.6-.7,1.3-1,1.9l-.1.1A1.2337,1.2337,0,0,1,18.8,50Zm.1-.3a1.1617,1.1617,0,0,0,.6-.8.56.56,0,0,0-.6.5C18.8,49.4,18.9,49.5,18.9,49.7Z" transform="translate(-1.5 -4.9)"/><path d="M27.2,50.5c.1-.7.5-.7,1-.8a.9866.9866,0,0,1,1,.9c0,.5-.1,1.1-.1,1.6,0,.3-.3.5-.6.6a1.2466,1.2466,0,0,1-1.2-.3c-.1-.1-.2-.2-.2-.3A3.2838,3.2838,0,0,1,27.2,50.5Zm.8,1.8c.3.1.3-.1.3-.3,0-.4.1-.8.1-1.2v-.6C28,50.3,27.8,51.6,28,52.3Z" transform="translate(-1.5 -4.9)"/><path d="M40,11.8a4.8752,4.8752,0,0,0,.7.3c-.1.2-.1.3-.2.4-.4.6-.9,1.2-1.3,1.8-.3.5-.5.6-1.1.4a3.3291,3.3291,0,0,1-.6-.3c0-.3.1-.4.3-.4a.2652.2652,0,0,0,.3-.3c.2-.8.5-1.6.7-2.3a.31.31,0,0,1,.1-.2c.2.1.5.2.7.3a13.3553,13.3553,0,0,1-.7,1.8H39C39.3,12.9,39.6,12.4,40,11.8Z" transform="translate(-1.5 -4.9)"/><path d="M45.3,17.3c-.2-.2-.3-.4-.5-.5.1-.2.2-.3.2-.4-.3-.2-.4.1-.5.2.1.3.1.6.2.8a.8252.8252,0,0,1-.5,1,.6424.6424,0,0,1-.9-.1,2.6513,2.6513,0,0,1-.5-.6c-.2-.3,0-.7.5-1,.2.1.3.3.5.5a1.7556,1.7556,0,0,1-.4.5.438.438,0,0,1,.3.1.7581.7581,0,0,0,.2-.4c0-.3-.1-.6-.1-.8a1.05,1.05,0,0,1,.5-.9.6052.6052,0,0,1,.8.1c.1.1.3.2.3.4A.5945.5945,0,0,1,45.3,17.3Z" transform="translate(-1.5 -4.9)"/><path d="M41.8,13.6l-.1-.1a.3821.3821,0,0,0-.3.5c.1.1.1.3.2.4a1.2038,1.2038,0,0,1-.3,1.4c-.3.2-.5.1-.8,0-.4-.2-.7-.4-.7-.9a1.4213,1.4213,0,0,1,.2-.6.6047.6047,0,0,1,.6.3c.1.1-.1.3-.1.5l.1.1a.4193.4193,0,0,0,.3-.6c-.1-.3-.2-.5-.3-.8-.1-.4.2-.7.5-1a.4941.4941,0,0,1,.7.1,2.1859,2.1859,0,0,1,.5.3c.4.3.4.7,0,1.1a2.092,2.092,0,0,1-.6-.4A1.0073,1.0073,0,0,0,41.8,13.6Z" transform="translate(-1.5 -4.9)"/><path d="M18.1,47.5c-.2-.1-.3-.3-.5-.4.1-.2.2-.3.3-.5a.3491.3491,0,0,1-.1-.2,4.3494,4.3494,0,0,1-.6.7c-.2.2-.3.5-.5.7a.4464.4464,0,0,0,0,.5c.1-.1.2-.1.2-.2.2-.4.6-.3.9.1a1.0367,1.0367,0,0,1-1.8.1.75.75,0,0,1,0-.9A16.9648,16.9648,0,0,1,17,46a.7347.7347,0,0,1,.6-.2,1.2649,1.2649,0,0,1,1,.7A1.1075,1.1075,0,0,1,18.1,47.5Z" transform="translate(-1.5 -4.9)"/><path d="M37.8,47.4c0-.1,0-.1.1-.2a4.8752,4.8752,0,0,1,.7-.3c.6,1.1,1.2,2.2,1.7,3.2a1.38,1.38,0,0,0-.4.3.6012.6012,0,0,1-.4.1C38.9,49.4,38.3,48.4,37.8,47.4Z" transform="translate(-1.5 -4.9)"/><path d="M18.9,15.4c-.3,0-.4-.3-.5-.6l-.3-1.5A.3674.3674,0,0,0,18,13c-.2.1-.3.2-.5.3l-.3-.3c-.1-.1,0-.2.1-.3l.9-.6h.2c.1.2.3.4.3.6l.3,1.5a.3674.3674,0,0,0,.1.3,1.7556,1.7556,0,0,0,.5-.4c.1.2.2.3.3.5,0,.1-.1.2-.2.3A2.1774,2.1774,0,0,1,18.9,15.4Z" transform="translate(-1.5 -4.9)"/><path d="M20.3,50.9c.1-.2.2-.5.3-.7.3-.8.7-1.6,1-2.4,0-.1.1-.2.2-.3a2.994,2.994,0,0,1,.8.4c-.1.4-.3.7-.4,1.1-.3.6-.5,1.2-.8,1.8C21.1,51.3,21,51.3,20.3,50.9Z" transform="translate(-1.5 -4.9)"/><path d="M14.9,43.4a1.4213,1.4213,0,0,1,.6-.2c.2.1.3.3.4.4v.3c0,.1-.1.1-.2.2a.3653.3653,0,0,1-.2.5c-.1,0-.1-.1-.2-.1l-.3.3-.9.9c-.1,0-.2.1-.1.3a1.38,1.38,0,0,1-.4.3,2.6513,2.6513,0,0,1-.5-.6.6628.6628,0,0,1,.2-.7,9.016,9.016,0,0,1,1-.9c.2-.2.4-.3.4-.6,0-.1.1-.1.2-.1Z" transform="translate(-1.5 -4.9)"/><path d="M33.7,51.9c.1,0,.2.1.3.1a.3674.3674,0,0,0,.1.3,1.0793,1.0793,0,0,1-1.1,0,8.7344,8.7344,0,0,1-.5-2.2c-.3-.1-.3-.2-.1-.5v-.5c.3,0,.5-.1.8-.1,0,.2.1.3.1.4.1,0,.2.1.3.1-.1.1-.1.2-.2.3,0,.1-.1.1-.1.2A16.2472,16.2472,0,0,1,33.7,51.9Z" transform="translate(-1.5 -4.9)"/><path d="M37.1,13.7c-.3-.1-.5-.2-.8-.3a15.928,15.928,0,0,1,1.4-3.5,6.89,6.89,0,0,0,.8.3C38,11.4,37.6,12.6,37.1,13.7Z" transform="translate(-1.5 -4.9)"/><path d="M21.7,10.5a2.5439,2.5439,0,0,1,.7-.2c.2,0,.2,0,.3.3,0-.1.1-.2.1-.3s.1-.1.2-.3c.1.3.2.5.3.8,0,.1,0,.3-.1.3-.2.1-.2.3-.2.5a6.4682,6.4682,0,0,1,.4,1.3v.2c-.2.1-.4.1-.6.2s-.3,0-.3-.2c-.2-.6-.4-1.1-.6-1.7A5.0725,5.0725,0,0,0,21.7,10.5Z" transform="translate(-1.5 -4.9)"/><path d="M47.2,39.6a.3491.3491,0,0,0-.2.1c-.1,0-.1-.1-.2-.1h0l-.4-.4a4.8752,4.8752,0,0,0,.3-.7h.6v-.1a.3674.3674,0,0,1,.3.1v.3c.6.3,1.2.5,1.8.8v-.1H50a1.5238,1.5238,0,0,1-.6,1C48.6,40.3,47.9,39.8,47.2,39.6Z" transform="translate(-1.5 -4.9)"/><path d="M13.4,41.6c.2.1.5,0,.5.3a3.5082,3.5082,0,0,1-.8.5v-.1c-.1-.1-.3-.2-.4-.3a13.0287,13.0287,0,0,0-1.5,1c-.4-.1-.4-.4-.6-.7a5.5469,5.5469,0,0,0,.8-.6,6.07,6.07,0,0,0,1-.7.9984.9984,0,0,0,.5-.4c.1-.1.2-.1.3.1a.52.52,0,0,1,.2.4C13.6,41.4,13.6,41.5,13.4,41.6Z" transform="translate(-1.5 -4.9)"/><path d="M34.7,49.1c.1.1.1.2.2.3.1-.2.2-.3.3-.5a2.1117,2.1117,0,0,1,.4,1c-.1.1-.1.1-.2.1-.2.1-.2.3-.2.5.1.4.2.8.3,1.1V52c-.3,0-.6.1-.8.1-.2-.8-.4-1.5-.6-2.2,0-.1-.1-.3-.1-.4-.1-.2,0-.3.2-.3A4.3311,4.3311,0,0,1,34.7,49.1Z" transform="translate(-1.5 -4.9)"/><path d="M43.4,14.1a4.2335,4.2335,0,0,0,.7.5c0,.2-.1.3-.1.4-.5.6-1.1,1.2-1.6,1.9-.1.1-.2.1-.3.2-.2-.2-.4-.3-.6-.5.1-.1.1-.3.2-.4C42.3,15.5,42.8,14.8,43.4,14.1Z" transform="translate(-1.5 -4.9)"/><path d="M14.2,42.2l.6.6-.3.3c-.6.5-1.2,1-1.9,1.5-.2.1-.3.1-.5-.1-.3-.5-.3-.5.1-.9.5-.4,1.1-.8,1.6-1.2C14,42.4,14,42.3,14.2,42.2Z" transform="translate(-1.5 -4.9)"/><path d="M47.4,43.8c-.2.2-.3.4-.5.6h-.3c-.4-.3-.9-.7-1.3-1a8.65,8.65,0,0,0-1-.7c.2-.2.3-.4.5-.6.1-.1.3,0,.3,0,.7.5,1.4,1.1,2.1,1.6a.3491.3491,0,0,1,.2.1Z" transform="translate(-1.5 -4.9)"/><path d="M16.8,45c0,.1,0,.2-.1.2-.6.6-1.2,1.3-1.8,1.9l-.2.2a2.6513,2.6513,0,0,0-.6-.5c.1-.1.1-.2.2-.3.5-.6,1-1.1,1.6-1.7l.1-.1c.1-.2.2-.2.4-.1Z" transform="translate(-1.5 -4.9)"/><path d="M27.6,9.7a.6823.6823,0,0,1,.5.9.7155.7155,0,0,1-.9.5.6527.6527,0,0,1-.5-.9A.6758.6758,0,0,1,27.6,9.7Z" transform="translate(-1.5 -4.9)"/><path d="M41.1,48a.6758.6758,0,0,1-.9.5.6569.6569,0,0,1-.5-.8c.1-.5.4-.7.8-.6Q41.4,47.25,41.1,48Z" transform="translate(-1.5 -4.9)"/><path d="M23.2,49.3a.6527.6527,0,0,1,.5.9.7791.7791,0,0,1-1,.5.8048.8048,0,0,1-.5-.9C22.5,49.3,22.8,49.1,23.2,49.3Z" transform="translate(-1.5 -4.9)"/><path d="M44.3,42.6a1.38,1.38,0,0,0-.4-.3l.3-.3a.52.52,0,0,0,.2-.4c.1.1.2.1.3.2C44.7,42.1,44.4,42.2,44.3,42.6Z" transform="translate(-1.5 -4.9)"/><path d="M14.9,42.7c-.1-.2-.2-.3-.3-.5,0-.1,0-.3.1-.3a.3674.3674,0,0,1,.3.1,1.38,1.38,0,0,1,.3.4C15.3,42.5,15.2,42.7,14.9,42.7Z" transform="translate(-1.5 -4.9)"/><path d="M44.6,14.2a1.38,1.38,0,0,0-.3.4,4.3494,4.3494,0,0,0-.7-.6.52.52,0,0,0,.2-.4C44.1,13.8,44.3,14,44.6,14.2Z" transform="translate(-1.5 -4.9)"/><path d="M16.5,44.3c0-.1,0-.1.1-.2a.0979.0979,0,0,1,.1-.1c.3,0,.5.2.7.5-.1.1-.1.2-.2.3C16.8,44.8,16.7,44.5,16.5,44.3Z" transform="translate(-1.5 -4.9)"/></svg>