<svg id="Слой_1" data-name="Слой 1" xmlns="http://www.w3.org/2000/svg" width="55.5311" height="59.2208" viewBox="0 0 55.5311 59.2208"><defs><style>.cls-1{fill-rule:evenodd;}</style></defs><title>iso-2015</title><path class="cls-1" d="M46.7422,36.6151c-1.5978,1.5346-2.5746,3.9533-4.6735,4.9617L39.7838,40.3v-.1552c.7166-1.2047,1.7473-2.2225,2.4883-3.4782-.3205-.0158-.6425-.0338-.9645-.051-.7116,1.1213-1.7445,2.0528-2.3878,3.1712l-3.9109-1.3807.6613-1.7395c-.271-.0158-.5427-.0338-.8136-.051l-.8123,1.4835c-.03.0266-4.4707-.6073-5.385-.6131-.0158-.2911-.0338-.58-.05-.87h-.8633v.8194l-2.0312.2041q-1.6281.2567-3.251.5111c-.289-.5283-.5758-1.0566-.8647-1.5856h-.8626l.71,1.8415-3.91,1.4325a10.3747,10.3747,0,0,1-2.49-3.223h-.9646c.312,1.265,1.6733,2.6544,2.4884,3.5292l-.05.2573c-.7978.2861-1.3764,1.0861-2.2857,1.1752a16.8224,16.8224,0,0,1-3.5565-3.4782c-.3378-.46-.6778-.92-1.0156-1.3814-.2171-.2207-.6347-.1316-1.0164-.1021v.051c3.5486,6.6163,14.7054,13.2442,25.5517,9.9752,5.761-1.7366,10.842-5.09,13.46-9.9752-.304-.0158-.61-.0337-.915-.051ZM34.761,39.0762c1.398.1258,2.3755.8122,3.5557,1.1256v.1538a14.5711,14.5711,0,0,1-3.8095,3.1712l-1.32.767-1.3211-.46v-.1531C32.7426,42.108,33.9466,40.7481,34.761,39.0762Zm-5.86-1.0049c1.6661.0015,3.7276,0,4.9272.6146l-1.6259,2.8147-1.2176,1.687c-.5685.2609-1.4109-.06-2.0844-.1028V38.0721Zm-1.1026.0015v4.9624l-1.5238.2566c-.7331-.0359-3.1892-3.7966-3.302-4.6548A19.6709,19.6709,0,0,1,27.7989,38.0728ZM21.93,39.0762c.4909.1035.5858.7518.813,1.1256l2.336,3.632-1.27.562c-1.2212-.3-4.7734-2.9757-5.283-3.9892C19.3181,39.6074,20.9016,39.6383,21.93,39.0762Zm.3882,6.1117a26.9117,26.9117,0,0,1-4.6735-1.8925q-1.04-.6663-2.0823-1.3305v-.2041q.992-.59,1.9809-1.1774h.1517c1.6417,1.2723,3.0692,3.2928,5.1824,4.04C22.7984,44.973,22.6022,45.0578,22.3183,45.1879Zm10.8506.55a30.55,30.55,0,0,1-9.702,0v-.2049a11.17,11.17,0,0,1,2.8449-1.2276q.8118-.1035,1.6258-.2049c2.0011-.0029,4.1294.386,5.13,1.4325h.1014Zm8.0387-3.926c-1.099,1.4484-4.8064,2.6645-6.8067,3.3761-.2588-.1365-.4673-.2487-.5593-.5642a16.6407,16.6407,0,0,0,5.08-4.0395c.9732.0632,1.4706.805,2.2864,1.0738ZM56.5355,21.3807a11.8337,11.8337,0,0,0-1.1177-3.3761c-1.8314-3.0871-5.5468-4.6174-10.5142-4.5513q-1.5223.2533-3.0476.51a8.9728,8.9728,0,0,0-6.0952,5.0645,18.8031,18.8031,0,0,0-.813,4.5024c-1.1,7.2589,5.6611,12.4736,13.0034,11.0993,4.98-.9315,7.4285-2.9685,8.534-7.8253a14.5938,14.5938,0,0,0,.05-5.4238m-7.0957,2.62c-.1028,1.7538.0783,3.476-.7116,4.5024a3.4956,3.4956,0,0,1-2.1333.92c-3.6859.6369-3.86-2.5372-3.86-5.7286a10.18,10.18,0,0,1,.4061-3.7851c.4866-1.063,1.4195-.9782,2.5387-1.4325,3.4357-.06,3.9539,2.19,3.76,5.5238M1.2352,13.4512v5.1155H4.1814V29.0514H1.2345v5.0645H14.29V29.0514H11.2923V18.5667H14.29V13.4512Z" transform="translate(-1.2345 -0.8896)"/><path class="cls-1" d="M29.5312,14.0815h4.3679V21.14H29.6332c-.8719-1.6323-5.9033-4.3644-8.1279-2.3015v.3579c.6254,1.1422,3.1368,1.3226,4.4708,1.7395,3.6205,1.13,7.1065,1.8975,8.3306,5.4217,1.9119,5.5065-3.7721,9.3268-9.1443,8.3895a17.1955,17.1955,0,0,1-3.7074-.9711l-1.5238-.769v1.3822H15.41V26.7657h4.115a6.3783,6.3783,0,0,0,6.5523,3.172c.979-.1639,1.64-.11,2.1837-.6649v-.3062c-.6958-.9991-2.796-1.186-4.0632-1.5863-3.512-1.11-7.2949-1.8717-8.6361-5.1666-2.2167-5.449,3.4479-9.52,8.7884-8.6439a14.5516,14.5516,0,0,1,3.2511.7151l1.93.9725V14.0815Zm14.6723-6.69C40.1726,3.3359,34.771.7662,26.577.8942l-1.5741.1538-3.8606.87C16.0685,3.5206,10.9954,7.2122,8.645,11.5349v.05H9.56q.6588-.8689,1.3211-1.7387a18.1221,18.1221,0,0,1,3.4034-3.223q1.1418.6922,2.2857,1.3815a29.024,29.024,0,0,0-2.49,3.5809v.05q.483-.0239.966-.05c.5247-1.2592,1.7358-2.0485,2.3863-3.17l3.862,1.3793-.6613,1.6366v.1538h.915l.71-1.4821c.0029-.0028,4.414.5607,5.3347.5621l.1014.869h.8122c.1394-.1423.12-.5247.1013-.818,1.3125-.27,2.7723-.2084,3.9634-.46l1.37-.2063.7116,1.5353h.9143l-.66-1.8415q1.9288-.69,3.86-1.3814a24.361,24.361,0,0,1,2.49,3.2229l.8625-.051H42.22A13.9618,13.9618,0,0,0,39.732,8.056V7.8519c.6728-.3579,1.4907-1.1335,2.2857-1.2284a15.886,15.886,0,0,1,4.5714,4.9114h.966c-.11-1.0638-2.5566-3.3416-3.3523-4.143Zm-26.9512-.39q-1.0662-.5368-2.1333-1.0753l-.05-.2551a27.0958,27.0958,0,0,1,4.115-2.3526q1.2937-.4626,2.59-.9215.3041.18.611.358v.051c-.17.5678-1.2694.9653-1.7294,1.2794A15.5841,15.5841,0,0,0,17.2523,7.0016Zm4.83,1.618c-1.3333-.1316-2.3173-.8805-3.5055-1.1256l-.05-.2049c1.1192-1.7825,3.4861-2.5516,5.08-3.8871l1.32.46c-.0676.5944-.496.8309-.7619,1.2284A15.814,15.814,0,0,0,22.0818,8.62Zm5.7164.9538c-1.6819.304-3.3559-.3069-4.8258-.46.1114-1.72,2.2619-3.3193,2.8937-4.7066q.9661.1295,1.9321.2559ZM23.4661,2.0579v-.05c1.1458-.5844,2.8823-.1366,4.1661-.6153,2.0521.0129,3.7714.3946,5.4856.5125.0159.051.0331.102.05.1531C31.3619,4.2034,25.3191,3.8735,23.4661,2.0579ZM28.9,9.5734V4.6117q.8906-.1014,1.7782-.2049a13.93,13.93,0,0,1,2.9973,4.6045,32.3,32.3,0,0,1-4.7748.5621Zm9.0235-2.13c-1.186.29-2.1822,1.0451-3.5558,1.1767Q32.92,6.3684,31.4726,4.1179l-.1021-.2049c.4061-.17.8122-.3414,1.22-.51a14.0586,14.0586,0,0,1,5.3333,3.8864Zm3.182-1.67a4.3609,4.3609,0,0,1-2.1348,1.1256c-1.1745-.9006-2.1714-2.0442-3.4027-2.916-.4945-.35-1.4282-.6441-1.7272-1.1767l.4586-.409c2.7026.4471,4.823,1.9918,6.8068,3.223v.1531ZM11.114,55.6152c0,2.4323-1.2111,3.5493-3.5019,4.4952l-.85-1.0027a3.6252,3.6252,0,0,0,2.2613-1.7035,1.55,1.55,0,0,1-.662.1509A1.9718,1.9718,0,0,1,6.2882,55.36a2.2832,2.2832,0,0,1,2.5085-2.2807c1.5518,0,2.318.984,2.318,2.5359Zm-1.7984-.2085c0-.6713-.2084-1.0213-.6145-1.0213-.4457,0-.6721.3407-.6721.9272a.8362.8362,0,0,0,.8137.9179.7306.7306,0,0,0,.4169-.1136,2.956,2.956,0,0,0,.056-.7094Zm7.0225.9754c0,1.968-.9848,3.3308-2.3569,3.3308-1.4,0-2.3181-1.2773-2.3181-3.274,0-2.1671.9747-3.2934,2.3468-3.2934C15.41,53.1455,16.3381,54.2905,16.3381,56.3821ZM14.521,56.344a5.933,5.933,0,0,0-.17-1.656c-.0855-.2552-.18-.3975-.3313-.3975-.18,0-.2933.1322-.3788.3788a6.582,6.582,0,0,0-.17,1.807,7.8623,7.8623,0,0,0,.1043,1.495c.0762.3788.1991.5873.4068.5873.2465,0,.3594-.2085.4356-.5492A8.885,8.885,0,0,0,14.521,56.344Zm7.1159.0381c0,1.968-.9833,3.3308-2.3562,3.3308-1.4,0-2.318-1.2773-2.318-3.274,0-2.1671.9746-3.2934,2.3468-3.2934,1.4009,0,2.3281,1.145,2.3281,3.2366Zm-1.8164-.0381a5.9109,5.9109,0,0,0-.17-1.656c-.0856-.2552-.18-.3975-.3307-.3975-.18,0-.2939.1322-.3788.3788a6.5275,6.5275,0,0,0-.17,1.807,7.8733,7.8733,0,0,0,.1035,1.495c.0762.3788.1991.5873.4068.5873.2466,0,.3594-.2085.4356-.5492A8.885,8.885,0,0,0,19.8205,56.344Zm6.5869,3.246H22.8767V58.36h1.1256V55.0279a5.0643,5.0643,0,0,1-1.0407.5111l-.4256-.87,1.968-1.4764h1.0416V58.36h.861v1.23Zm3.2553-3.4825a.97.97,0,1,1-1.94,0,.97.97,0,0,1,1.94,0Zm0,2.6782a.97.97,0,1,1-1.94,0,.97.97,0,0,1,1.94,0Zm5.508-.5678-.3594,1.3728H30.6374V58.3975a16.0376,16.0376,0,0,0,1.845-1.8256,2.308,2.308,0,0,0,.7289-1.5432.5468.5468,0,0,0-.5865-.606,1.7348,1.7348,0,0,0-1.145.5966l-1.07-.9653a3.6336,3.6336,0,0,1,2.5085-.9747,1.8559,1.8559,0,0,1,2.1,1.912c0,1.3908-1.1924,2.4036-2.5366,3.2833a4.6139,4.6139,0,0,1,.7857-.0568Zm5.252-1.8358c0,1.968-.9847,3.3308-2.3561,3.3308-1.4016,0-2.3188-1.2773-2.3188-3.274,0-2.1671.9747-3.2934,2.3468-3.2934C39.4955,53.1455,40.4227,54.2905,40.4227,56.3821Zm-1.817-.0381a5.9063,5.9063,0,0,0-.17-1.656c-.0848-.2552-.18-.3975-.3306-.3975-.18,0-.294.1322-.3788.3788a6.5275,6.5275,0,0,0-.17,1.807,7.9321,7.9321,0,0,0,.1035,1.495c.0761.3788.1991.5873.4075.5873.2458,0,.3594-.2085.4349-.5492A8.885,8.885,0,0,0,38.6057,56.344Zm6.5868,3.246h-3.53V58.36H42.789V55.0279a5.09,5.09,0,0,1-1.0416.5111l-.4255-.87,1.968-1.4757h1.0415V58.36h.8611Zm5.6589-2.2138c0,1.4282-1.22,2.5545-3.1511,2.5545a3.88,3.88,0,0,1-.7288-.0661l-.3687-1.2773a5.2115,5.2115,0,0,0,1.012.1035c.9085,0,1.4857-.4442,1.4857-1.1544,0-.4822-.3407-.7662-1.0027-.7662a4.1769,4.1769,0,0,0-1.2586.18l.284-3.7477h3.5205l-.2465,1.429H48.6563l-.1042.8984a2.6757,2.6757,0,0,1,.4543-.028,1.82,1.82,0,0,1,1.845,1.8738Z" transform="translate(-1.2345 -0.8896)"/></svg>