<?xml version="1.0" encoding="UTF-8"?>
<svg width="117px" height="32px" viewBox="0 0 117 32" version="1.1" xmlns="http://www.w3.org/2000/svg" xmlns:xlink="http://www.w3.org/1999/xlink">
    <!-- Generator: Sketch 51.1 (57501) - http://www.bohemiancoding.com/sketch -->
    <title>Artboard</title>
    <desc>Created with Sketch.</desc>
    <defs></defs>
    <g id="Page-1" stroke="none" stroke-width="1" fill="none" fill-rule="evenodd">
        <g id="Artboard" fill="#919191">
            <g id="Group-5">
                <polygon id="Fill-73" points="101.364936 5.44764702 98.0140441 5.44764702 96.7839589 7.15128371 102.595021 7.15128371"></polygon>
                <polygon id="Fill-75" points="112.025752 9.50385888 115.376644 9.50385888 116.60673 7.80022218 110.795667 7.80022218"></polygon>
                <polygon id="Fill-77" points="111.557113 4.79870855 113.232559 2.4782339 112.002473 0.774828152 109.096942 4.79870855"></polygon>
                <polygon id="Fill-79" points="101.833547 10.1529128 100.158101 12.4731565 101.388186 14.1767932 104.293718 10.1529128"></polygon>
                <polygon id="Fill-81" points="107.398275 7.15128371 116.60673 7.15128371 115.376644 5.44764702 108.62836 5.44764702"></polygon>
                <polygon id="Fill-83" points="105.992385 7.80033765 96.78393 7.80033765 98.0140153 9.50397434 104.762299 9.50374341"></polygon>
                <polygon id="Fill-85" points="107.163897 12.1809726 108.839343 14.5014472 111.299514 14.5014472 108.393982 10.4773359"></polygon>
                <polygon id="Fill-87" points="107.398275 7.80033765 112.002358 14.1767932 113.232732 12.4731565 109.858445 7.80033765"></polygon>
                <polygon id="Fill-89" points="105.992385 7.15128371 101.388302 0.774828152 100.157928 2.47846484 103.532214 7.15128371"></polygon>
                <polygon id="Fill-91" points="106.695258 8.1247607 102.090886 14.5014472 104.551345 14.5014472 107.925343 9.82839739"></polygon>
                <polygon id="Fill-93" points="111.2996 0.450220353 108.83943 0.450220353 106.695517 3.41963347 104.551316 0.450220353 102.091146 0.450220353 106.695229 6.82690685"></polygon>
                <path d="M28.0354781,16.7734709 C27.6990026,16.9081083 27.2845456,16.9755424 26.7941288,16.9755424 L24.4994523,16.9755424 L24.4994523,15.1578219 L26.7941288,15.1578219 C27.00439,15.1578219 27.2111852,15.1638263 27.4148035,15.1749114 C27.6175553,15.1859965 27.8038443,15.2197135 27.9725153,15.2756008 C28.1411863,15.3319499 28.2772206,15.4215542 28.3829288,15.5451065 C28.4883482,15.6684279 28.5406246,15.842325 28.5406246,16.0665667 C28.5406246,16.4032757 28.3725313,16.6388334 28.0354781,16.7734709 Z M24.4994523,12.3976395 L27.00439,12.3976395 C27.4676576,12.3976395 27.8142418,12.4482151 28.0458756,12.5491354 C28.2772206,12.6502867 28.3933263,12.868755 28.3933263,13.205464 C28.3933263,13.4301676 28.2985933,13.6209231 28.1094161,13.7777307 C27.9196612,13.9350001 27.5511266,14.0132884 27.00439,14.0132884 L24.4994523,14.0132884 L24.4994523,12.3976395 Z M30.7769595,15.0652154 C30.4855399,14.790398 30.0560643,14.5800126 29.4879549,14.4340592 C29.866887,14.2883367 30.1932539,14.0724088 30.4664778,13.7862754 C30.7405682,13.4999111 30.8768913,13.1779822 30.8768913,12.8184103 C30.8768913,12.4482151 30.8104627,12.1426829 30.6767389,11.9013517 C30.5438816,11.6600205 30.3370863,11.4720361 30.0560643,11.3376297 C29.7750422,11.2027613 29.4108399,11.1103857 28.9620133,11.0598101 C28.5123203,11.0092345 27.9725153,10.9840621 27.3408655,10.9840621 L20.9729575,10.9840621 L20.9729575,11.2766618 C21.362576,11.2766618 21.6785453,11.529309 21.6785453,11.8410766 L21.6785453,18.3893507 L27.4381979,18.3893507 C28.7742802,18.3893507 29.7374956,18.195593 30.3281329,17.8085393 C30.9187702,17.4214856 31.2139445,16.8972541 31.2139445,16.2349212 C31.2139445,15.7300886 31.0680903,15.3402637 30.7769595,15.0652154 Z" id="Fill-95"></path>
                <path d="M52.3016033,13.9881161 C52.0419539,14.139612 51.6878603,14.21536 51.2390337,14.21536 L48.2503222,14.21536 L48.2503222,12.3976395 L51.0917354,12.3976395 C51.7228076,12.3976395 52.1473733,12.4849344 52.3645661,12.6586005 C52.5826253,12.8327285 52.6915105,13.0486564 52.6915105,13.3066152 C52.6915105,13.6096071 52.5612526,13.8366201 52.3016033,13.9881161 M55.185473,17.9925976 C55.0517493,17.9251634 54.9503734,17.8468751 54.8799013,17.7570399 L53.0066134,15.5954512 C53.6801421,15.3933796 54.2384316,15.115791 54.6803265,14.7622235 C55.1225102,14.4088869 55.3428801,13.9292267 55.3428801,13.3234738 C55.3428801,12.5493664 55.0306654,11.9660146 54.4065249,11.5731874 C53.7820957,11.1803602 52.9436506,10.9840621 51.8911897,10.9840621 L44.8919208,10.9840621 L44.8919208,11.2766618 C45.2815393,11.2766618 45.5975086,11.529309 45.5975086,11.8410766 L45.5980862,18.3893507 L48.2503222,18.3893507 L48.2503222,15.6289374 L50.2709084,15.6289374 C50.3124985,15.6963716 52.2516374,18.3893507 52.2516374,18.3893507 L55.7304768,18.3893507 L55.7304768,18.0937489 C55.5756691,18.0937489 55.3183303,18.0598008 55.185473,17.9925976" id="Fill-97"></path>
                <path d="M62.5049281,23.5368877 L62.5057945,27.3573109 C62.0569679,26.9760307 58.0686497,23.5368877 58.0686497,23.5368877 L53.9907971,23.5368877 L53.9907971,23.8294874 C54.3807044,23.8294874 54.6966737,24.0821346 54.6966737,24.3939022 L54.6952296,30.9421764 L57.2221176,30.9421764 L57.2232729,25.9668274 L63.015851,30.9421764 L65.0315272,30.9421764 L65.0321049,24.3731177 C65.0456794,24.0710495 65.3561612,23.8294874 65.737115,23.8294874 L65.737115,23.5368877 L62.5049281,23.5368877 Z" id="Fill-99"></path>
                <path d="M86.2381222,10.9839928 L86.2389886,14.804416 C85.790162,14.4231358 81.8018438,10.9839928 81.8018438,10.9839928 L77.7242801,10.9839928 L77.7242801,11.2768234 C78.1138985,11.2768234 78.4298678,11.5292397 78.4298678,11.8410073 L78.4287126,18.3892815 L80.9556006,18.3892815 L80.956467,13.4139326 L86.7490451,18.3892815 L88.7647214,18.3892815 L88.765299,11.8202228 C88.7788736,11.5181547 89.0893553,11.2768234 89.4703091,11.2768234 L89.4703091,10.9839928 L86.2381222,10.9839928 Z" id="Fill-101"></path>
                <path d="M68.3304028,15.6796747 L70.0563924,12.7345101 L71.8248385,15.6796747 L68.3304028,15.6796747 Z M76.6137664,18.0936796 C76.4589587,18.0936796 76.2013311,18.0597316 76.0684738,17.9927593 C75.9520793,17.9338698 75.8639891,17.8470368 75.7909176,17.725332 C75.7077374,17.5745288 72.2413172,11.6975942 72.2173452,11.6534849 L72.2182116,11.6534849 C72.1529382,11.5066077 72.2488266,11.3451814 72.4325162,11.2929892 C72.4712181,11.282135 72.5107865,11.2768234 72.5494884,11.2768234 L72.5494884,10.9839928 L67.7686475,10.9839928 L67.7686475,11.2768234 C67.8073494,11.2768234 67.8472066,11.282135 67.8856197,11.2929892 C68.0693093,11.3451814 68.1651976,11.5066077 68.0999243,11.6534849 L68.1005019,11.6534849 C68.0470702,11.7594859 64.7614515,17.6904602 64.7568303,17.698774 C64.6811595,17.8345661 64.5890258,17.9297129 64.4639667,17.9927593 C64.3311094,18.0597316 64.0737706,18.0936796 63.9189629,18.0936796 L63.9189629,18.3892815 L67.4330384,18.3892815 L67.4330384,18.0939105 C67.2262431,18.0939105 67.0743237,17.9054643 67.1780102,17.7126303 C67.2967153,17.4920836 67.6568741,16.8911804 67.6568741,16.8911804 L72.5362027,16.8911804 C72.5362027,16.8911804 72.9419951,17.5770691 73.0150666,17.7126303 C73.118753,17.9054643 72.9668336,18.0936796 72.7600383,18.0936796 L72.7600383,18.3892815 L76.6137664,18.3892815 L76.6137664,18.0936796 Z" id="Fill-103"></path>
                <path d="M16.2666034,22.1041193 C16.2666034,22.1041193 14.0346008,27.6207892 13.9921442,27.7551956 L13.9505541,27.7551956 C13.8942342,27.5757561 12.0244121,22.1041193 12.0244121,22.1041193 L8.17299465,22.1041193 L6.0212841,27.7551956 L5.97882753,27.7551956 L3.73382805,22.1041193 L-3.96084337e-05,22.1041193 L-3.96084337e-05,22.3992593 C0.154479203,22.3992593 0.411529189,22.4332074 0.544097664,22.5001797 C0.677821421,22.5676138 0.761579282,22.6239629 0.852557647,22.8228014 L4.20373853,30.9453864 L7.44343481,30.9453864 C7.44343481,30.9453864 9.72251507,25.1204131 9.89089725,24.6268965 L9.93277618,24.6268965 C10.1291739,25.1878472 12.1188563,30.9453864 12.1188563,30.9453864 L15.3085867,30.9453864 C15.3085867,30.9453864 18.6840285,22.8800742 18.7082894,22.8207229 C18.800423,22.6066425 18.8830256,22.5655354 19.0164606,22.4981012 C19.149029,22.4311289 19.4063678,22.3971809 19.5608867,22.3971809 L19.5608867,22.1020409 L16.2666034,22.1041193 Z" id="Fill-105"></path>
                <path d="M41.3314897,28.8801686 C41.3314897,29.1912434 41.0158092,29.4431978 40.6267684,29.4431978 L35.750328,29.4436596 L35.750328,23.525387 L32.2241221,23.5246942 L32.2241221,23.816601 C32.6134517,23.816601 32.9288434,24.0687863 32.9288434,24.3798611 L32.9297098,30.9297518 L41.6971361,30.9297518 L41.6971361,28.8801686 L41.3314897,28.8801686 Z" id="Fill-108"></path>
                <path d="M52.2329218,28.8801686 C52.2329218,29.1912434 51.9175302,29.4431978 51.5282005,29.4431978 L46.6517601,29.4436596 L46.6517601,23.525387 L43.1255542,23.5246942 L43.1255542,23.816601 C43.5148838,23.816601 43.8302755,24.0687863 43.8302755,24.3798611 L43.831142,30.9297518 L52.5985682,30.9297518 L52.5985682,28.8801686 L52.2329218,28.8801686 Z" id="Fill-110"></path>
                <path d="M11.9994581,14.4298099 C11.7467404,14.1053407 11.4174853,13.8436869 11.0108265,13.6446175 C10.6038788,13.4455481 10.1411888,13.294514 9.62217893,13.1922081 C9.10316902,13.0896712 8.57058455,13.0102282 8.02413672,12.9529553 C7.47711124,12.8963753 6.94394914,12.8534206 6.42551686,12.8247842 C5.90650695,12.7968406 5.44352815,12.7596594 5.0368693,12.7139335 C4.63021045,12.6689004 4.30095541,12.5975402 4.04910419,12.5005459 C3.79638651,12.4042443 3.67046089,12.2589837 3.67046089,12.0652259 C3.67046089,11.87193 3.85241763,11.6899501 4.21661991,11.5190553 C4.58168865,11.3483914 5.21911485,11.2631749 6.13120907,11.2631749 C6.51129647,11.2631749 6.90033729,11.2802644 7.29804271,11.3144434 C7.29804271,11.3144434 7.3049744,11.3151362 7.31826013,11.3162909 C7.42656771,11.3257594 7.53574175,11.3363826 7.64549342,11.3483914 C7.88145953,11.3742566 8.10731694,11.403124 8.32335445,11.4349935 C9.11934295,11.5460752 10.218015,11.7393711 11.0160253,12.0365895 L11.9032809,10.585831 L11.904725,10.5865238 L12.2166509,10.0736084 L11.8827747,9.94243505 C11.7357652,10.1565155 11.3715629,10.3003904 10.9259134,10.207322 C10.86064,10.1939276 10.791612,10.1791475 10.7165187,10.162058 C10.3930401,10.0879266 9.99417936,10.0054814 9.51762602,9.9142605 C9.04020621,9.82350149 8.49375838,9.74082534 7.87712723,9.66669393 C7.25934081,9.59279347 6.59389905,9.55584323 5.87849139,9.55584323 C5.10734143,9.55584323 4.40637479,9.62697243 3.77501381,9.76923083 C3.14451929,9.91148923 2.60760253,10.1080183 2.16599643,10.3581252 C1.72439033,10.6086939 1.38069428,10.9105312 1.13548592,11.2631749 C0.889988746,11.6158187 0.767240158,12.0086459 0.767240158,12.4409636 C0.767240158,12.9871343 0.980967112,13.4169117 1.40899866,13.729834 C1.83674139,14.0429872 2.3727917,14.282009 3.01772722,14.4466685 C3.66266275,14.6120208 4.35698653,14.7261046 5.10069857,14.7882272 C5.84354414,14.8510426 6.53786792,14.9076226 7.18280345,14.9588911 C7.82773898,15.0101595 8.36378928,15.0782865 8.79182083,15.1639649 C9.21898592,15.2491814 9.43329052,15.5043689 9.43329052,15.7092118 C9.43329052,16.0847185 9.18750452,16.2623106 8.6970878,16.461149 C8.20638227,16.6604493 7.43465467,16.759984 6.38306029,16.759984 C5.96600391,16.759984 5.55270219,16.7345807 5.14344396,16.6851598 C4.8352728,16.6562924 2.88313701,16.4433667 1.49044596,15.6466273 L0.413146582,17.7495575 L0.143677327,18.2784077 L0.489395117,18.3871799 C0.619364211,18.1754089 0.962193798,17.9881174 1.39311355,18.0610941 C1.44798939,18.0696388 1.57218208,18.1040488 1.5724709,18.1035869 C1.82374448,18.1774873 2.12729452,18.2516187 2.53453101,18.3391446 C2.98277998,18.435908 3.52576197,18.5185842 4.16463227,18.5864802 C4.80205847,18.6548382 5.5628109,18.6890171 6.44660074,18.6890171 C7.58253062,18.6890171 8.53217146,18.6038007 9.29638974,18.4331368 C10.060608,18.2622419 10.6703075,18.0319958 11.1266434,17.7414746 C11.581824,17.4514153 11.9041474,17.1244057 12.0939023,16.759984 C12.2827907,16.3960242 12.3781014,16.0258291 12.3781014,15.6505533 C12.3781014,15.1611936 12.2515981,14.7540482 11.9994581,14.4298099" id="Fill-112"></path>
                <path d="M29.9900977,28.8968655 C29.9900977,29.2072474 29.6767278,29.4589709 29.2891311,29.4610493 L23.763134,29.4610493 L23.763134,27.7950557 L28.1971019,27.7950557 L28.1971019,26.3810165 L23.763134,26.3810165 L23.763134,25.0180147 L28.9607425,25.0180147 C29.3428517,25.0251738 29.6495787,25.2748189 29.6495787,25.5819677 L30.0155139,25.5819677 L30.016958,23.5370032 L20.2369281,23.5370032 L20.2369281,23.8296029 C20.6213478,23.8296029 20.9335625,24.075091 20.9425159,24.3806232 L20.9425159,30.9420609 L30.3563218,30.9420609 L30.3563218,28.8968655 L29.9900977,28.8968655 Z" id="Fill-114"></path>
                <path d="M77.1697453,28.8968655 C77.1697453,29.2072474 76.8563753,29.4589709 76.4687786,29.4610493 L70.9427816,29.4610493 L70.9427816,27.7950557 L75.3767494,27.7950557 L75.3767494,26.3810165 L70.9427816,26.3810165 L70.9427816,25.0180147 L76.14039,25.0180147 C76.5222104,25.0251738 76.8292262,25.2748189 76.8292262,25.5819677 L77.1951614,25.5819677 L77.1966056,23.5370032 L67.4165756,23.5370032 L67.4165756,23.8296029 C67.8009953,23.8296029 68.11321,24.075091 68.1221634,24.3806232 L68.1221634,30.9420609 L77.5359693,30.9420609 L77.5359693,28.8968655 L77.1697453,28.8968655 Z" id="Fill-116"></path>
                <path d="M42.8447054,16.3484739 C42.8447054,16.6588559 42.5313355,16.9105793 42.1437388,16.9126578 L36.6177417,16.9126578 L36.6177417,15.2466641 L41.0517096,15.2466641 L41.0517096,13.8326249 L36.6177417,13.8326249 L36.6177417,12.4696232 L41.8153502,12.4696232 C42.1971705,12.4767823 42.5041864,12.7264273 42.5041864,13.0335761 L42.8701216,13.0335761 L42.8715657,10.9886116 L33.0915358,10.9886116 L33.0915358,11.2812113 C33.4759555,11.2812113 33.7881701,11.5266994 33.7971236,11.8322316 L33.7971236,18.3939002 L43.2109294,18.3939002 L43.2109294,16.3484739 L42.8447054,16.3484739 Z" id="Fill-118"></path>
                <path d="M18.0407104,17.533491 L18.0407104,11.8399219 C18.0407104,11.5286162 18.3563909,11.2761999 18.7454317,11.2761999 L18.7454317,10.9840621 L14.5153709,10.9838312 L14.5153709,11.2764308 C14.9032564,11.2764308 15.2174928,11.5265377 15.2206699,11.8362269 L15.2206699,17.5367241 C15.2174928,17.8461823 14.9032564,18.0965201 14.5153709,18.0965201 L14.5153709,18.3891198 L18.7462981,18.3891198 L18.7462981,18.0965201 C18.3572573,18.0965201 18.0418657,17.8445657 18.0407104,17.533491" id="Fill-120"></path>
                <path d="M61.5891081,17.533491 L61.5891081,11.8399219 C61.5891081,11.5286162 61.9047886,11.2761999 62.2938294,11.2761999 L62.2938294,10.9840621 L58.0637686,10.9838312 L58.0637686,11.2764308 C58.4516541,11.2764308 58.7658905,11.5265377 58.7690675,11.8362269 L58.7690675,17.5367241 C58.7658905,17.8461823 58.4516541,18.0965201 58.0637686,18.0965201 L58.0637686,18.3891198 L62.2946958,18.3891198 L62.2946958,18.0965201 C61.905655,18.0965201 61.5899745,17.8445657 61.5891081,17.533491" id="Fill-122"></path>
                <path d="M88.767263,27.4437976 C88.4310763,27.1694421 88.0067994,26.9590567 87.4955876,26.8133342 C86.9835094,26.6680736 86.429841,26.564382 85.8345826,26.5024904 C85.2384577,26.4408297 84.685367,26.3849424 84.1732887,26.3343668 C83.6614993,26.2840221 83.2378001,26.2168189 82.9016134,26.1325261 C82.564849,26.0484644 82.3964668,25.9057441 82.3964668,25.7041344 C82.3964668,25.5136097 82.4984204,25.3704276 82.7020386,25.2752807 C82.9045016,25.1801339 83.13989,25.1069262 83.4061823,25.0565815 C83.6724745,25.0062369 83.9384779,24.9782932 84.2047701,24.9725198 C84.4710624,24.9672082 84.6674601,24.964206 84.7933857,24.964206 C85.1581657,24.964206 85.5119704,24.9893783 85.8556665,25.039723 C86.198496,25.0902986 86.5072449,25.1489571 86.7804688,25.2163913 C86.9332547,25.2540344 87.0698666,25.2916774 87.189727,25.3290895 C87.4825907,25.4327811 87.673212,25.65633 87.5195597,25.9117485 L87.8491035,26.038534 L88.227458,25.4018353 L88.953552,24.1829395 C87.9088893,23.8711719 86.9474068,23.6575533 86.0358903,23.5455479 C85.949533,23.5363104 85.861154,23.5270728 85.771331,23.5182971 C85.3155727,23.4737259 84.8358423,23.450863 84.3315622,23.450863 C83.4760768,23.450863 82.7502716,23.5323844 82.1550131,23.6951964 C81.5588882,23.8575465 81.0791579,24.0621584 80.7149556,24.3085703 C80.3501756,24.555444 80.0838834,24.8270282 79.9155012,25.1240157 C79.7476967,25.4210032 79.66365,25.6983609 79.66365,25.9560888 C79.66365,26.4269733 79.8314545,26.7941663 80.1682189,27.0574367 C80.5049833,27.3207071 80.9283937,27.5225477 81.4404719,27.6624967 C81.9516837,27.8029076 82.505352,27.9008257 83.1008993,27.956482 C83.6970242,28.0128311 84.2501149,28.0659471 84.7619043,28.1162918 C85.2739826,28.1666365 85.6976818,28.2398441 86.0344462,28.334991 C86.3703441,28.4301378 86.5387263,28.5899476 86.5387263,28.8141893 C86.5387263,28.9820819 86.4653659,29.1139481 86.3183564,29.2093259 C86.1713469,29.3044727 85.9919896,29.3772185 85.7817285,29.4275632 C85.5717562,29.4783698 85.3580292,29.5090847 85.1405476,29.5201697 C84.9233548,29.5317167 84.7517956,29.5370283 84.62587,29.5370283 C84.2047701,29.5370283 83.7530553,29.5118559 83.2692815,29.4612803 C82.7860853,29.4109356 82.3369699,29.3437324 81.9236681,29.2596706 C81.6648852,29.2070165 81.4346955,29.1511293 81.2333878,29.091778 C80.9353254,28.9938598 80.569679,28.7756225 80.6245548,28.3964208 L80.2753712,28.3109733 L80.0980356,28.7797794 L79.5192399,30.2921987 C80.7894712,30.6208248 82.4894669,30.8538422 82.4894669,30.8538422 L82.4897557,30.8556897 C82.6899082,30.8801692 82.8972811,30.9030322 83.1118745,30.9238167 C83.6300179,30.9743923 84.1418073,30.9995647 84.6463762,30.9995647 C85.4458306,30.9995647 86.1355332,30.9409062 86.7172171,30.8231273 C87.2991899,30.7055794 87.7797867,30.5346846 88.1581412,30.3104428 C88.5364956,30.0862011 88.8163624,29.825702 88.998608,29.5284835 C89.1805647,29.231727 89.2724095,28.9208831 89.2724095,28.5954901 C89.2724095,28.1024355 89.1040273,27.7188459 88.767263,27.4437976" id="Fill-124"></path>
                <path d="M100.182708,27.3721834 C99.8465217,27.0978279 99.4222448,26.8874425 98.9110331,26.74172 C98.3989548,26.5964594 97.8452865,26.4927678 97.250028,26.4308762 C96.6539031,26.3694464 96.1008124,26.3133283 95.5887342,26.2629836 C95.0769448,26.2124079 94.6532455,26.1452047 94.3170588,26.060912 C93.9802945,25.9768502 93.8119123,25.8341299 93.8119123,25.6325202 C93.8119123,25.4419956 93.9138658,25.2988134 94.1174841,25.2036666 C94.319947,25.1085197 94.5553355,25.0353121 94.8216277,24.9849674 C95.08792,24.9346227 95.3542122,24.9066791 95.6202156,24.9009056 C95.8865078,24.895594 96.0829056,24.8925918 96.2088312,24.8925918 C96.5736111,24.8925918 96.9274159,24.9177641 97.2711119,24.9681088 C97.6139415,25.0186845 97.9226903,25.0775739 98.1959142,25.1447771 C98.3487001,25.1824202 98.4853121,25.2200632 98.6051725,25.2574753 C98.8980361,25.3611669 99.0886575,25.5847158 98.9350051,25.8401343 L99.264549,25.9669198 L99.6429035,25.3302211 L100.368997,24.1113253 C99.3243348,23.7995577 98.3628523,23.5859392 97.4513357,23.4739338 C97.3649785,23.4646962 97.2765995,23.4556896 97.1867764,23.446683 C96.7310181,23.4021118 96.2512878,23.3792488 95.7470077,23.3792488 C94.8915222,23.3792488 94.165717,23.4607703 93.5704586,23.6235822 C92.9743337,23.7859323 92.4946033,23.9905442 92.130401,24.2369561 C91.7656211,24.4838298 91.4993289,24.7554141 91.3309467,25.0524016 C91.1631421,25.34962 91.0790955,25.6267467 91.0790955,25.8844746 C91.0790955,26.3553591 91.2469,26.7225521 91.5836644,26.9858225 C91.9204287,27.2490929 92.3438392,27.4509336 92.8559174,27.5908826 C93.3671292,27.7312935 93.9207975,27.8292116 94.5163448,27.8848679 C95.1124697,27.941217 95.6655604,27.9943329 96.1773498,28.0449086 C96.689428,28.0950223 97.1131273,28.16823 97.4498916,28.2633768 C97.7857895,28.3585237 97.9541717,28.5183334 97.9541717,28.7425752 C97.9541717,28.9104678 97.8808114,29.0423339 97.7338019,29.1377117 C97.5867924,29.2328586 97.407435,29.3056043 97.1971739,29.355949 C96.9872016,29.4067556 96.7734747,29.4374705 96.5559931,29.4485555 C96.3388003,29.4601025 96.1672411,29.4654141 96.0413155,29.4654141 C95.6202156,29.4654141 95.1685008,29.4402417 94.6847269,29.3896661 C94.2015307,29.3393214 93.7524153,29.2721182 93.3391136,29.1880564 C93.0803307,29.1354023 92.850141,29.0795151 92.6488333,29.0201638 C92.3507708,28.9222457 91.9851245,28.7040083 92.0400003,28.3248066 L91.6908167,28.2393592 L91.5134811,28.7081653 L90.9346854,30.2205845 C92.2049166,30.5492106 93.9049124,30.782228 93.9049124,30.782228 L93.9052012,30.7840755 C94.1053536,30.8085551 94.3127265,30.831418 94.5273199,30.8522025 C95.0454634,30.9027782 95.5572528,30.9279505 96.0618217,30.9279505 C96.861276,30.9279505 97.5509787,30.869292 98.1326626,30.7515131 C98.7146353,30.6339652 99.1952321,30.4630704 99.5735866,30.2388287 C99.9519411,30.0145869 100.231808,29.7540878 100.414053,29.4568694 C100.59601,29.1601128 100.687855,28.849269 100.687855,28.523876 C100.687855,28.0308213 100.519473,27.6472317 100.182708,27.3721834" id="Fill-126"></path>
            </g>
        </g>
    </g>
</svg>