<svg width="526" height="88" xmlns="http://www.w3.org/2000/svg"><g fill="none" fill-rule="evenodd"><path d="M334.713 33.873c-3.647-5.305-8.629-9.438-14.461-12.009V4.896a3.01 3.01 0 0 1 3-2.95V.38h-6.529v23.871l1.114.445c11.795 4.712 19.416 16.007 19.416 28.775 0 17.066-13.803 30.95-30.768 30.95s-30.767-13.884-30.767-30.95c0-12.767 7.621-24.063 19.416-28.775l1.113-.445V.381h-6.529v1.566a3.01 3.01 0 0 1 3 2.949v16.968c-5.831 2.571-10.814 6.704-14.46 12.009-3.97 5.775-6.069 12.552-6.069 19.598 0 19.024 15.385 34.5 34.296 34.5s34.296-15.476 34.296-34.5c0-7.046-2.098-13.823-6.068-19.598" fill="#00C7FF"/><path fill="#00C7FF" d="M308.323 54.538l10.12 17.63 2.573-4.483-7.546-13.147zm-.613 12.17l3.747 6.528h5.147l-6.32-11.012zm-12.008-5.551l-3.746 6.528 2.573 4.484 6.32-11.012zm22.792-2.135h7.493l2.574-4.484h-12.64zm-12.008-3.417l-10.12 17.63h5.148l7.545-13.146zm-1.838-1.067H284.41l2.574 4.484h15.09zm3.675-2.135h20.238l-2.574-4.484h-15.09zm-13.846-4.483h-7.493l-2.574 4.484h12.64zm22.128-14.214h-5.148l-4.972 8.662-4.971-8.662h-5.147l10.119 17.63zm.664 12.079l3.747-6.528-2.574-4.484-6.32 11.012zm-12.621 6.618l-10.12-17.63-2.572 4.484 7.545 13.146z"/><path d="M444.678 22.663c-.356.261-.842.392-1.457.392h-4.099v-3.136h3.897c.865 0 1.448.15 1.746.45.299.3.448.673.448 1.118 0 .523-.179.914-.535 1.176m3.955 6.909a1.303 1.303 0 0 1-.419-.407l-2.569-3.73c.924-.348 1.69-.827 2.295-1.437.607-.61.909-1.437.909-2.482 0-1.336-.428-2.342-1.284-3.02-.856-.677-2.006-1.016-3.45-1.016h-9.598v.505a.97.97 0 0 1 .967.973l.001 11.298h3.637v-4.762h2.771c.057.116 2.717 4.762 2.717 4.762h4.77v-.51c-.212 0-.565-.058-.747-.174M463.18 17.48l.002 6.591c-.616-.658-6.085-6.591-6.085-6.591h-5.593v.505a.97.97 0 0 1 .968.973l-.001 11.298h3.465l.001-8.584 7.944 8.584h2.764l.001-11.334a.97.97 0 0 1 .967-.937v-.505h-4.433zm-31.678 9.255a.97.97 0 0 1-.961.973h-7.579v-2.874h6.081v-2.44h-6.08v-2.351h7.128a.97.97 0 0 1 .944.973h.502l.002-3.528h-13.413v.505a.97.97 0 0 1 .968.95v11.321h12.91v-3.529h-.502zm30.256 33.788l.002 3.528h.502c0-.53.421-.96.945-.973h3.545v9.35c0 .213-.072.349-.216.406a1.786 1.786 0 0 1-.448.117v.348h5.196v-.348a1.773 1.773 0 0 1-.448-.117c-.144-.057-.216-.193-.216-.406v-9.35h3.545a.97.97 0 0 1 .945.973h.502l.002-3.528h-13.856zm-43.347 2.901a4.67 4.67 0 0 0-1.528.247 4.03 4.03 0 0 0-1.269.7 3.14 3.14 0 0 0-.85 1.092 3.366 3.366 0 0 0-.303 1.456c0 .544.1 1.029.303 1.456.202.427.485.791.85 1.092.365.3.788.535 1.27.7.48.164.99.247 1.527.247a4.64 4.64 0 0 0 1.543-.248c.471-.164.89-.398 1.254-.699.365-.3.65-.665.851-1.092.202-.427.303-.912.303-1.456 0-.544-.101-1.03-.303-1.456a3.14 3.14 0 0 0-.85-1.093 4.07 4.07 0 0 0-1.255-.699 4.64 4.64 0 0 0-1.543-.247m0-3.075c.904 0 1.812.126 2.725.377.913.252 1.74.643 2.48 1.174a6.164 6.164 0 0 1 1.802 2.046c.462.831.692 1.818.692 2.958 0 1.16-.23 2.152-.692 2.973a6.05 6.05 0 0 1-1.802 2.016c-.74.522-1.567.9-2.48 1.132-.913.232-1.821.348-2.725.348a11.03 11.03 0 0 1-2.724-.348 7.438 7.438 0 0 1-2.48-1.132 6.054 6.054 0 0 1-1.802-2.016c-.462-.821-.692-1.812-.692-2.973 0-1.14.23-2.127.692-2.958a6.168 6.168 0 0 1 1.801-2.046 7.737 7.737 0 0 1 2.48-1.174 10.239 10.239 0 0 1 2.725-.377m19.681 5.357c-.356.261-.842.392-1.457.392h-4.099v-3.136h3.897c.865 0 1.448.15 1.746.45.299.3.448.673.448 1.118 0 .523-.179.914-.535 1.176m3.955 6.909a1.307 1.307 0 0 1-.419-.407l-2.569-3.729c.924-.349 1.69-.828 2.296-1.438.606-.61.908-1.437.908-2.482 0-1.336-.428-2.342-1.284-3.02-.856-.677-2.006-1.016-3.45-1.016h-9.598v.505c.534 0 .968.436.968.974v11.297h3.637v-4.762h2.771c.057.116 2.717 4.762 2.717 4.762h4.77v-.51c-.211 0-.565-.058-.747-.174m-50.98-52.235a4.67 4.67 0 0 0-1.528.248 4.03 4.03 0 0 0-1.269.7c-.365.3-.649.665-.85 1.092a3.372 3.372 0 0 0-.303 1.456c0 .543.1 1.03.302 1.456.202.427.486.792.851 1.092.365.301.788.535 1.27.7.48.165.989.247 1.527.247a4.64 4.64 0 0 0 1.543-.247c.47-.165.889-.399 1.254-.7.365-.3.649-.665.85-1.092.203-.427.304-.913.304-1.456 0-.544-.101-1.03-.303-1.456a3.144 3.144 0 0 0-.85-1.093 4.08 4.08 0 0 0-1.255-.699 4.64 4.64 0 0 0-1.543-.248m0-3.074c.903 0 1.811.126 2.725.377a7.75 7.75 0 0 1 2.48 1.175 6.167 6.167 0 0 1 1.802 2.044c.461.832.692 1.818.692 2.96 0 1.16-.23 2.15-.692 2.972a6.06 6.06 0 0 1-1.802 2.016c-.74.522-1.567.9-2.48 1.132-.914.231-1.822.347-2.725.347-.904 0-1.812-.116-2.725-.347a7.438 7.438 0 0 1-2.48-1.132 6.047 6.047 0 0 1-1.802-2.016c-.461-.821-.692-1.813-.692-2.973 0-1.14.231-2.127.692-2.959a6.154 6.154 0 0 1 1.802-2.044 7.74 7.74 0 0 1 2.48-1.175 10.242 10.242 0 0 1 2.725-.377m93.726 46.118a4.67 4.67 0 0 0-1.528.247c-.48.165-.904.398-1.27.7a3.14 3.14 0 0 0-.85 1.092 3.366 3.366 0 0 0-.303 1.456c0 .544.101 1.029.303 1.456.202.427.486.791.85 1.092.366.3.79.535 1.27.7.48.164.99.247 1.528.247.557 0 1.071-.083 1.543-.248.47-.164.889-.398 1.254-.699.365-.3.649-.665.85-1.092.203-.427.304-.912.304-1.456 0-.544-.101-1.03-.303-1.456a3.14 3.14 0 0 0-.85-1.093 4.073 4.073 0 0 0-1.255-.699 4.645 4.645 0 0 0-1.543-.247m0-3.075c.903 0 1.812.126 2.725.377.913.252 1.74.643 2.48 1.174a6.164 6.164 0 0 1 1.802 2.046c.461.831.692 1.818.692 2.958 0 1.16-.23 2.152-.692 2.973a6.05 6.05 0 0 1-1.802 2.016c-.74.522-1.567.9-2.48 1.132-.913.232-1.822.348-2.725.348a11.03 11.03 0 0 1-2.725-.348 7.441 7.441 0 0 1-2.48-1.132 6.054 6.054 0 0 1-1.802-2.016c-.461-.821-.692-1.812-.692-2.973 0-1.14.23-2.127.692-2.958a6.168 6.168 0 0 1 1.802-2.046 7.74 7.74 0 0 1 2.48-1.174 10.239 10.239 0 0 1 2.725-.377m19.681 5.357c-.356.261-.842.392-1.457.392h-4.1v-3.136h3.898c.865 0 1.448.15 1.746.45.298.3.448.673.448 1.118 0 .523-.18.914-.535 1.176m3.955 6.909a1.307 1.307 0 0 1-.42-.407l-2.568-3.729c.923-.349 1.69-.828 2.295-1.438.606-.61.909-1.437.909-2.482 0-1.336-.429-2.342-1.285-3.02-.856-.677-2.005-1.016-3.45-1.016h-9.598v.505a.97.97 0 0 1 .968.974v11.297h3.638v-4.762h2.77c.058.116 2.717 4.762 2.717 4.762h4.771v-.51c-.212 0-.565-.058-.747-.174m-104.495-2.104c-.461.232-1.03.349-1.703.349h-3.147v-3.136h3.147c.29 0 .573.01.852.03.278.018.533.077.764.173.232.098.419.252.563.465.145.213.216.513.216.9 0 .58-.23.987-.692 1.22zm-4.85-7.549h3.436c.635 0 1.11.087 1.428.261.318.174.476.552.476 1.133 0 .387-.13.716-.388.987-.26.271-.766.406-1.516.406h-3.436v-2.787zm8.61 4.602c-.4-.474-.99-.837-1.768-1.089a3.69 3.69 0 0 0 1.342-1.118c.375-.493.563-1.05.563-1.669 0-.64-.092-1.166-.275-1.583a2.08 2.08 0 0 0-.851-.972c-.386-.233-.885-.392-1.5-.48a16.156 16.156 0 0 0-2.223-.13h-8.734v.505a.97.97 0 0 1 .968.973V73.3h7.899c1.832 0 3.153-.334 3.963-1.002.81-.668 1.215-1.572 1.215-2.715 0-.87-.2-1.544-.6-2.018zm-26.328 1.06l2.367-5.081 2.425 5.081h-4.792zm11.36 4.165c-.213 0-.566-.058-.748-.174a1.055 1.055 0 0 1-.38-.462c-.115-.26-4.869-10.4-4.902-10.475h.002a.488.488 0 0 1 .454-.65v-.505h-6.557v.505a.485.485 0 0 1 .455.65c-.072.183-4.578 10.415-4.585 10.43-.104.234-.23.398-.402.507-.182.116-.534.174-.747.174v.51h4.82v-.51c-.284 0-.493-.325-.35-.657.162-.38.656-1.417.656-1.417h6.692s.557 1.183.656 1.417c.143.332-.065.657-.349.657v.51h5.285v-.51zm58.087-4.165l2.367-5.081 2.425 5.081h-4.792zm11.36 4.165c-.213 0-.566-.058-.748-.174a1.052 1.052 0 0 1-.38-.462c-.115-.26-4.87-10.4-4.902-10.475h.001a.488.488 0 0 1 .455-.65v-.505h-6.556v.505a.488.488 0 0 1 .454.65c-.073.183-4.579 10.415-4.585 10.43-.104.234-.23.398-.401.507-.183.116-.536.174-.748.174v.51h4.82v-.51c-.284 0-.493-.325-.35-.657.162-.38.656-1.417.656-1.417h6.692s.556 1.183.656 1.417c.142.332-.066.657-.35.657v.51h5.285v-.51zm-89.278-3.026a.969.969 0 0 1-.966.971l-6.688.001V60.524l-4.835-.001v.503a.97.97 0 0 1 .966.972l.001 11.301h12.024v-3.536h-.502zm28.527-22.636l2.368-5.081 2.424 5.081h-4.792zm11.36 4.165c-.212 0-.565-.058-.747-.174a1.055 1.055 0 0 1-.381-.461c-.114-.26-4.868-10.4-4.901-10.476a.488.488 0 0 1 .455-.65v-.505h-6.556v.505a.484.484 0 0 1 .455.65c-.073.183-4.579 10.415-4.585 10.43-.104.234-.23.398-.402.507-.182.116-.535.174-.747.174v.51h4.819v-.51c-.284 0-.492-.325-.35-.657.163-.38.657-1.418.657-1.418h6.691s.557 1.184.657 1.418c.142.332-.066.657-.35.657v.51h5.285v-.51zm13.884-3.026a.969.969 0 0 1-.967.971l-6.688.001v-10.21l-4.835-.002v.504a.97.97 0 0 1 .966.971l.001 11.301h12.024v-3.536h-.501zm.501-9.24l.002 3.528h.501c0-.53.421-.96.945-.973h3.545v9.35c0 .214-.071.349-.216.407a1.804 1.804 0 0 1-.447.116v.348h5.195v-.348a1.79 1.79 0 0 1-.447-.116c-.144-.058-.216-.193-.216-.407v-9.35h3.545a.97.97 0 0 1 .945.973h.502l.001-3.528h-13.855zm-34.469 9.247a.97.97 0 0 1-.962.974h-7.578v-2.875h6.08v-2.44h-6.08v-2.35h7.128a.97.97 0 0 1 .945.972h.502l.001-3.528h-13.412v.505a.97.97 0 0 1 .968.95v11.321h12.91v-3.529h-.502zm-20.89-9.247v4.53h-6.38v-4.53h-4.834v.505a.97.97 0 0 1 .967.95v11.321h3.868v-5.285h6.379v5.285h3.868V40.481a.97.97 0 0 1 .967-.95v-.505h-4.835zm82.709 0v4.53h-6.38v-4.53h-4.834v.505a.97.97 0 0 1 .967.95v11.321h3.868v-5.285h6.379v5.285h3.868V40.481a.97.97 0 0 1 .967-.95v-.505h-4.835zm66.691 21.497l-3.092 4.53-3.47-4.53h-4.843v.505c.561.015.889.185 1.179.6.062.09 5.171 7.054 5.171 7.054V73.3h3.868v-4.733s4.475-6.849 4.537-6.938c.29-.415.618-.585 1.179-.6v-.505h-4.53zm-110.21-33.845c-.654.533-1.732.798-3.233.798h-2.078v-7.2h2.078c1.5 0 2.579.266 3.233.798.654.532.981 1.466.981 2.802s-.327 2.27-.981 2.802m4.402-5.241a5.415 5.415 0 0 0-1.068-2.033 5.34 5.34 0 0 0-1.862-1.394c-.75-.348-1.665-.522-2.742-.522h-8.877v.505a.97.97 0 0 1 .968.95v11.32h7.909c1.077 0 1.992-.173 2.742-.522a5.344 5.344 0 0 0 1.862-1.393 5.421 5.421 0 0 0 1.068-2.033 8.84 8.84 0 0 0 .332-2.439c0-.852-.111-1.665-.332-2.44m-40.97-6.457l-3.515 7.42-3.504-7.42h-6.818v.505c.527 0 .956.424.968.95v13.83h4.16v-11.76l5.2 11.411 5.2-11.41v11.759h4.159v-13.83a.97.97 0 0 1 .967-.95v-.505h-6.817zm-235.42 3.936h-4.595l-1.687 2.94h7.97zm14.62 6.998h4.596l1.687-2.94h-7.97zm-.642-8.118l2.298-4.003-1.687-2.94-3.985 6.943zm-13.335 9.238l-2.297 4.003 1.686 2.94 3.985-6.943zm7.632-5.179h12.628l-1.687-2.94h-9.254zm-1.928 1.12h-12.629l1.687 2.94 9.255-.001zm1.606 7.558l2.298 4.003h3.374l-3.985-6.942zm.322-7.558l6.314 11.001 1.687-2.939-4.628-8.062zm-1.928-1.12l-6.314-11.001-1.688 2.94 4.628 8.061zm.963 1.68l-6.314 11.001h3.374l4.627-8.062zm6.315-13.241h-3.374l-2.94 5.123-2.94-5.123h-3.374l6.313 11.002zM38.448 38.455c-.462.233-1.03.349-1.703.349h-3.147v-3.136h3.147c.288 0 .572.01.851.03.278.018.534.077.765.173.231.097.418.252.563.465.145.213.216.513.216.9 0 .58-.23.987-.692 1.22zm-4.85-7.55h3.435c.636 0 1.111.088 1.429.262.317.175.476.551.476 1.132 0 .388-.13.717-.39.988s-.765.406-1.515.406h-3.435v-2.787zm8.61 4.603c-.4-.474-.99-.837-1.769-1.089.52-.251.968-.624 1.342-1.118a2.683 2.683 0 0 0 .563-1.67c0-.638-.09-1.165-.274-1.582a2.08 2.08 0 0 0-.851-.972c-.386-.233-.885-.392-1.5-.48a16.158 16.158 0 0 0-2.224-.13h-8.733v.505a.97.97 0 0 1 .968.973v11.298h7.898c1.833 0 3.154-.334 3.964-1.002.81-.668 1.214-1.572 1.214-2.715 0-.87-.2-1.543-.599-2.018zm29.518-1.858c-.356.261-.842.392-1.457.392h-4.1v-3.136h3.898c.865 0 1.447.15 1.745.45.3.3.448.673.448 1.118 0 .523-.178.914-.534 1.176m3.955 6.909a1.303 1.303 0 0 1-.42-.407l-2.568-3.73c.923-.348 1.689-.827 2.295-1.437.606-.61.909-1.437.909-2.482 0-1.336-.429-2.342-1.285-3.02-.856-.677-2.006-1.016-3.45-1.016h-9.598v.505a.97.97 0 0 1 .968.973v11.298h3.638v-4.762h2.77c.058.116 2.717 4.762 2.717 4.762h4.771v-.51c-.212 0-.565-.058-.747-.174m10.037 9.565l.002 6.591c-.616-.657-6.085-6.59-6.085-6.59h-5.593v.504a.97.97 0 0 1 .968.974L75.008 62.9h3.466l.001-8.583L86.42 62.9h2.764l.001-11.333a.97.97 0 0 1 .967-.938v-.505h-4.433zm32.548-21.657l.001 6.591c-.615-.658-6.085-6.591-6.085-6.591h-5.592v.505a.97.97 0 0 1 .968.973l-.002 11.298h3.465l.002-8.584 7.944 8.584h2.764V29.909a.97.97 0 0 1 .967-.937v-.505h-4.432zm-24.559 8.101l2.367-5.081 2.426 5.081h-4.793zm11.36 4.165c-.212 0-.565-.059-.748-.174a1.057 1.057 0 0 1-.38-.461c-.114-.26-4.868-10.4-4.901-10.476h.001a.488.488 0 0 1 .454-.65v-.505h-6.556v.505a.488.488 0 0 1 .454.65h.001c-.073.183-4.579 10.415-4.585 10.43-.104.234-.23.398-.402.507-.182.115-.535.174-.747.174v.51h4.819v-.51c-.284 0-.492-.325-.35-.657.163-.38.657-1.418.657-1.418h6.691s.557 1.184.657 1.418c.142.332-.066.657-.35.657v.51h5.285v-.51zm-82.759 6.919s-3.061 9.518-3.12 9.75h-.056c-.078-.31-2.642-9.75-2.642-9.75h-5.282l-2.95 9.75h-.059l-3.078-9.75H0v.51c.212 0 .564.058.746.174.184.116.298.213.423.556l4.596 14.014h4.443s3.125-10.05 3.356-10.901h.058c.269.968 2.998 10.901 2.998 10.901h4.374s4.63-13.915 4.662-14.017c.127-.37.24-.44.423-.557.182-.116.535-.174.747-.174v-.51l-4.518.004zm34.373 11.691a.969.969 0 0 1-.966.971l-6.687.001v-10.21l-4.836-.002v.504c.534 0 .966.435.966.972l.001 11.3h12.024v-3.536h-.502zm14.951 0a.969.969 0 0 1-.967.971l-6.687.001v-10.21l-4.836-.002v.504c.534 0 .966.435.966.972l.001 11.3h12.024v-3.536h-.501zM16.456 34.412a4.108 4.108 0 0 0-1.356-1.355 6.671 6.671 0 0 0-1.904-.78 19.818 19.818 0 0 0-2.192-.413 36.755 36.755 0 0 0-2.192-.221 26.507 26.507 0 0 1-1.904-.192c-.558-.077-1.01-.2-1.355-.368-.347-.166-.52-.417-.52-.75 0-.334.25-.648.75-.943.5-.295 1.374-.442 2.625-.442a14.886 14.886 0 0 1 2.077.147c.324.045.633.095.93.15 1.091.191 2.598.525 3.692 1.038l1.217-2.503.002.001.428-.885-.458-.226c-.202.37-.701.617-1.312.457-.09-.023-.185-.049-.287-.078a39.26 39.26 0 0 0-1.645-.428c-.654-.156-1.404-.3-2.25-.427a18.438 18.438 0 0 0-2.74-.191c-1.058 0-2.02.122-2.885.368-.865.245-1.601.584-2.207 1.016a4.71 4.71 0 0 0-1.413 1.561 4.127 4.127 0 0 0-.505 2.032c0 .943.293 1.684.88 2.224.587.54 1.322.953 2.206 1.237.885.285 1.837.482 2.857.59 1.019.108 1.971.205 2.855.294.885.088 1.62.206 2.207.353.586.147.88.588.88.941 0 .648-.337.954-1.01 1.297-.673.344-1.731.516-3.173.516-.572 0-1.14-.044-1.7-.13-.423-.049-3.1-.416-5.01-1.79L.567 40.138l-.37.913.474.187a1.108 1.108 0 0 1 1.24-.562c.075.015.245.074.245.073.345.128.761.256 1.32.407.615.166 1.36.31 2.235.426.874.118 1.918.177 3.13.177 1.558 0 2.86-.147 3.908-.441 1.048-.295 1.884-.692 2.51-1.194.624-.5 1.066-1.064 1.326-1.693.26-.628.39-1.267.39-1.914 0-.844-.173-1.547-.52-2.106m24.673 24.961a.97.97 0 0 1-.961.973h-7.579v-2.874h6.081v-2.44h-6.08V52.68h7.127a.97.97 0 0 1 .945.973h.502l.002-3.529H27.753v.505a.97.97 0 0 1 .967.95V62.9h12.91v-3.528h-.502zm64.702 0a.97.97 0 0 1-.962.973H97.29v-2.874h6.08v-2.44h-6.08V52.68h7.128a.97.97 0 0 1 .945.973h.501l.002-3.529H92.454v.505a.97.97 0 0 1 .968.95V62.9h12.91v-3.528h-.502zm-47.073-21.65a.97.97 0 0 1-.962.973h-7.578v-2.874h6.08v-2.44h-6.08V31.03h7.128a.97.97 0 0 1 .945.973h.502l.002-3.528H45.38v.505a.97.97 0 0 1 .968.95v11.321h12.91v-3.529h-.502zM24.74 39.767v-9.824a.97.97 0 0 1 .967-.972v-.504h-5.8v.504a.97.97 0 0 1 .966.966v9.835a.97.97 0 0 1-.967.966v.505h5.802v-.505a.971.971 0 0 1-.967-.971m59.722 0v-9.824a.97.97 0 0 1 .966-.972v-.504h-5.801v.504a.97.97 0 0 1 .967.966v9.835a.97.97 0 0 1-.967.966v.505h5.802v-.505a.97.97 0 0 1-.967-.971m37.271 17.098c-.46-.474-1.043-.837-1.744-1.088-.702-.25-1.461-.43-2.278-.536-.817-.107-1.576-.203-2.278-.29-.702-.087-1.283-.203-1.744-.349-.462-.145-.693-.39-.693-.739 0-.328.14-.575.42-.74.277-.164.6-.29.965-.377a5.35 5.35 0 0 1 1.095-.145c.366-.01.635-.014.808-.014.5 0 .985.043 1.456.13.47.087.894.188 1.269.305.21.065.397.13.56.194.403.18.664.565.453 1.005l.452.22.519-1.1.996-2.102c-1.433-.538-2.751-.907-4.001-1.1l-.363-.047a16.17 16.17 0 0 0-1.975-.116c-1.173 0-2.168.14-2.985.421-.817.28-1.475.633-1.975 1.059-.5.425-.865.894-1.096 1.406-.23.513-.345.991-.345 1.436 0 .812.23 1.446.692 1.9.462.454 1.042.803 1.744 1.044.702.242 1.46.411 2.278.507.817.097 1.576.19 2.277.276.703.087 1.284.213 1.746.377.46.164.691.44.691.827 0 .29-.1.517-.302.682a2.12 2.12 0 0 1-.736.376c-.288.088-.581.14-.88.16-.297.02-.532.03-.705.03-.578 0-1.197-.044-1.86-.132a15.686 15.686 0 0 1-1.846-.347 9.555 9.555 0 0 1-.947-.29c-.408-.169-.91-.546-.835-1.2l-.478-.147-.244.809-.793 2.609c1.742.567 4.073.969 4.073.969v.003c.275.042.56.082.854.118.71.087 1.412.13 2.104.13 1.096 0 2.042-.1 2.84-.304.798-.203 1.457-.498 1.976-.884.519-.387.903-.837 1.153-1.35a3.63 3.63 0 0 0 .375-1.61c0-.85-.23-1.512-.693-1.986m15.656-.124c-.462-.473-1.044-.836-1.745-1.088-.702-.25-1.461-.43-2.278-.536-.817-.106-1.576-.203-2.278-.29-.702-.087-1.283-.203-1.744-.348-.462-.145-.693-.391-.693-.74 0-.328.14-.575.42-.74.277-.163.6-.29.965-.376.365-.087.73-.136 1.095-.146.366-.009.635-.014.808-.014.5 0 .985.044 1.456.13.47.088.894.19 1.269.305.21.065.397.13.56.195.403.179.664.564.453 1.005l.452.219.519-1.099.996-2.103c-1.433-.538-2.751-.906-4.001-1.1l-.363-.046a16.17 16.17 0 0 0-1.975-.117c-1.173 0-2.168.14-2.985.422-.817.28-1.475.633-1.975 1.058-.5.426-.865.894-1.096 1.407-.23.513-.345.99-.345 1.435 0 .813.23 1.446.692 1.9.462.455 1.042.803 1.744 1.044.702.243 1.46.412 2.278.508.817.097 1.576.189 2.277.276.703.086 1.284.213 1.746.377.46.164.691.44.691.826 0 .29-.1.518-.302.682a2.12 2.12 0 0 1-.736.377 3.94 3.94 0 0 1-.88.16c-.297.02-.532.029-.705.029-.578 0-1.197-.044-1.86-.131a15.686 15.686 0 0 1-1.846-.348 9.555 9.555 0 0 1-.947-.29c-.408-.169-.91-.545-.835-1.2l-.478-.147-.244.81-.793 2.608c1.742.567 4.073.97 4.073.97v.003c.275.042.56.081.854.117.71.087 1.412.13 2.104.13 1.096 0 2.042-.1 2.84-.304.798-.202 1.457-.497 1.976-.884.519-.387.903-.836 1.153-1.35a3.63 3.63 0 0 0 .375-1.609c0-.85-.23-1.512-.693-1.987" fill="#E3E3F9"/><path d="M217.5 3.194V84.81" stroke="#E3E3F9" stroke-linecap="square"/></g></svg>